<svg width="360" height="270" viewBox="0 0 360 270" fill="none" xmlns="http://www.w3.org/2000/svg">
<g opacity="0.7" clip-path="url(#clip0_400_782)">
<g clip-path="url(#clip1_400_782)">
<mask id="mask0_400_782" style="mask-type:luminance" maskUnits="userSpaceOnUse" x="0" y="0" width="360" height="360">
<path d="M360 0H0V360H360V0Z" fill="white"/>
</mask>
<g mask="url(#mask0_400_782)">
<path d="M84.9959 169.596C76.6799 161.172 71.5679 149.58 71.5679 136.836C71.5679 111.06 92.4839 90.144 118.26 90.144C144.036 90.144 164.988 111.024 164.988 136.8L129.024 109.44L84.9959 169.596Z" fill="#FDC858"/>
<path d="M118.296 77.688V82.728" stroke="#D4C0E2" stroke-width="2" stroke-miterlimit="10" stroke-linecap="round" stroke-linejoin="round"/>
<path d="M118.296 68.3279V73.5839" stroke="#D4C0E2" stroke-width="2" stroke-miterlimit="10" stroke-linecap="round" stroke-linejoin="round"/>
<path d="M118.296 56.772V63.648" stroke="#D4C0E2" stroke-width="2" stroke-miterlimit="10" stroke-linecap="round" stroke-linejoin="round"/>
<path d="M108 78.5881L108.9 83.5201" stroke="#D4C0E2" stroke-width="2" stroke-miterlimit="10" stroke-linecap="round" stroke-linejoin="round"/>
<path d="M106.38 69.3721L107.316 74.5561" stroke="#D4C0E2" stroke-width="2" stroke-miterlimit="10" stroke-linecap="round" stroke-linejoin="round"/>
<path d="M104.364 57.9961L105.588 64.7641" stroke="#D4C0E2" stroke-width="2" stroke-miterlimit="10" stroke-linecap="round" stroke-linejoin="round"/>
<path d="M98.064 81.252L99.792 85.968" stroke="#D4C0E2" stroke-width="2" stroke-miterlimit="10" stroke-linecap="round" stroke-linejoin="round"/>
<path d="M94.8599 72.468L96.6599 77.4" stroke="#D4C0E2" stroke-width="2" stroke-miterlimit="10" stroke-linecap="round" stroke-linejoin="round"/>
<path d="M90.8999 61.5959L93.2759 68.0759" stroke="#D4C0E2" stroke-width="2" stroke-miterlimit="10" stroke-linecap="round" stroke-linejoin="round"/>
<path d="M88.7039 85.6079L91.2239 89.9639" stroke="#D4C0E2" stroke-width="2" stroke-miterlimit="10" stroke-linecap="round" stroke-linejoin="round"/>
<path d="M84.0598 77.5081L86.6878 82.0801" stroke="#D4C0E2" stroke-width="2" stroke-miterlimit="10" stroke-linecap="round" stroke-linejoin="round"/>
<path d="M78.2639 67.5L81.7199 73.476" stroke="#D4C0E2" stroke-width="2" stroke-miterlimit="10" stroke-linecap="round" stroke-linejoin="round"/>
<path d="M80.28 91.512L83.52 95.364" stroke="#D4C0E2" stroke-width="2" stroke-miterlimit="10" stroke-linecap="round" stroke-linejoin="round"/>
<path d="M74.2678 84.3479L77.6518 88.3799" stroke="#D4C0E2" stroke-width="2" stroke-miterlimit="10" stroke-linecap="round" stroke-linejoin="round"/>
<path d="M66.8159 75.4919L71.2799 80.7839" stroke="#D4C0E2" stroke-width="2" stroke-miterlimit="10" stroke-linecap="round" stroke-linejoin="round"/>
<path d="M73.0078 98.8201L76.8598 102.024" stroke="#D4C0E2" stroke-width="2" stroke-miterlimit="10" stroke-linecap="round" stroke-linejoin="round"/>
<path d="M65.844 92.8079L69.84 96.1919" stroke="#D4C0E2" stroke-width="2" stroke-miterlimit="10" stroke-linecap="round" stroke-linejoin="round"/>
<path d="M56.9519 85.356L62.2439 89.784" stroke="#D4C0E2" stroke-width="2" stroke-miterlimit="10" stroke-linecap="round" stroke-linejoin="round"/>
<path d="M67.0679 107.244L71.4239 109.764" stroke="#D4C0E2" stroke-width="2" stroke-miterlimit="10" stroke-linecap="round" stroke-linejoin="round"/>
<path d="M58.968 102.564L63.54 105.192" stroke="#D4C0E2" stroke-width="2" stroke-miterlimit="10" stroke-linecap="round" stroke-linejoin="round"/>
<path d="M48.96 96.7681L54.936 100.224" stroke="#D4C0E2" stroke-width="2" stroke-miterlimit="10" stroke-linecap="round" stroke-linejoin="round"/>
<path d="M62.7119 116.604L67.4639 118.296" stroke="#D4C0E2" stroke-width="2" stroke-miterlimit="10" stroke-linecap="round" stroke-linejoin="round"/>
<path d="M53.928 113.4L58.896 115.2" stroke="#D4C0E2" stroke-width="2" stroke-miterlimit="10" stroke-linecap="round" stroke-linejoin="round"/>
<path d="M43.0559 109.44L49.5359 111.78" stroke="#D4C0E2" stroke-width="2" stroke-miterlimit="10" stroke-linecap="round" stroke-linejoin="round"/>
<path d="M60.0481 126.54L65.0161 127.404" stroke="#D4C0E2" stroke-width="2" stroke-miterlimit="10" stroke-linecap="round" stroke-linejoin="round"/>
<path d="M50.8682 124.92L56.0162 125.82" stroke="#D4C0E2" stroke-width="2" stroke-miterlimit="10" stroke-linecap="round" stroke-linejoin="round"/>
<path d="M39.4561 122.904L46.2601 124.092" stroke="#D4C0E2" stroke-width="2" stroke-miterlimit="10" stroke-linecap="round" stroke-linejoin="round"/>
<path d="M59.1479 136.8H64.1879" stroke="#D4C0E2" stroke-width="2" stroke-miterlimit="10" stroke-linecap="round" stroke-linejoin="round"/>
<path d="M49.824 136.8H55.08" stroke="#D4C0E2" stroke-width="2" stroke-miterlimit="10" stroke-linecap="round" stroke-linejoin="round"/>
<path d="M38.2319 136.8H45.1439" stroke="#D4C0E2" stroke-width="2" stroke-miterlimit="10" stroke-linecap="round" stroke-linejoin="round"/>
<path d="M60.0481 147.06L65.0161 146.196" stroke="#D4C0E2" stroke-width="2" stroke-miterlimit="10" stroke-linecap="round" stroke-linejoin="round"/>
<path d="M50.8682 148.68L56.0162 147.78" stroke="#D4C0E2" stroke-width="2" stroke-miterlimit="10" stroke-linecap="round" stroke-linejoin="round"/>
<path d="M39.4561 150.696L46.2601 149.508" stroke="#D4C0E2" stroke-width="2" stroke-miterlimit="10" stroke-linecap="round" stroke-linejoin="round"/>
<path d="M62.7119 157.032L67.4639 155.304" stroke="#D4C0E2" stroke-width="2" stroke-miterlimit="10" stroke-linecap="round" stroke-linejoin="round"/>
<path d="M53.928 160.236L58.896 158.436" stroke="#D4C0E2" stroke-width="2" stroke-miterlimit="10" stroke-linecap="round" stroke-linejoin="round"/>
<path d="M43.0559 164.196L49.5359 161.82" stroke="#D4C0E2" stroke-width="2" stroke-miterlimit="10" stroke-linecap="round" stroke-linejoin="round"/>
<path d="M67.0679 166.356L71.4239 163.836" stroke="#D4C0E2" stroke-width="2" stroke-miterlimit="10" stroke-linecap="round" stroke-linejoin="round"/>
<path d="M58.968 171.036L63.54 168.408" stroke="#D4C0E2" stroke-width="2" stroke-miterlimit="10" stroke-linecap="round" stroke-linejoin="round"/>
<path d="M48.96 176.832L54.936 173.376" stroke="#D4C0E2" stroke-width="2" stroke-miterlimit="10" stroke-linecap="round" stroke-linejoin="round"/>
<path d="M173.844 116.604L169.092 118.296" stroke="#D4C0E2" stroke-width="2" stroke-miterlimit="10" stroke-linecap="round" stroke-linejoin="round"/>
<path d="M182.628 113.4L177.66 115.2" stroke="#D4C0E2" stroke-width="2" stroke-miterlimit="10" stroke-linecap="round" stroke-linejoin="round"/>
<path d="M169.488 107.244L165.132 109.764" stroke="#D4C0E2" stroke-width="2" stroke-miterlimit="10" stroke-linecap="round" stroke-linejoin="round"/>
<path d="M177.588 102.564L173.016 105.192" stroke="#D4C0E2" stroke-width="2" stroke-miterlimit="10" stroke-linecap="round" stroke-linejoin="round"/>
<path d="M187.596 96.7681L181.62 100.224" stroke="#D4C0E2" stroke-width="2" stroke-miterlimit="10" stroke-linecap="round" stroke-linejoin="round"/>
<path d="M163.548 98.8201L159.732 102.024" stroke="#D4C0E2" stroke-width="2" stroke-miterlimit="10" stroke-linecap="round" stroke-linejoin="round"/>
<path d="M170.712 92.8079L166.716 96.1919" stroke="#D4C0E2" stroke-width="2" stroke-miterlimit="10" stroke-linecap="round" stroke-linejoin="round"/>
<path d="M179.604 85.356L174.312 89.784" stroke="#D4C0E2" stroke-width="2" stroke-miterlimit="10" stroke-linecap="round" stroke-linejoin="round"/>
<path d="M156.276 91.512L153.036 95.364" stroke="#D4C0E2" stroke-width="2" stroke-miterlimit="10" stroke-linecap="round" stroke-linejoin="round"/>
<path d="M162.288 84.3479L158.904 88.3799" stroke="#D4C0E2" stroke-width="2" stroke-miterlimit="10" stroke-linecap="round" stroke-linejoin="round"/>
<path d="M169.74 75.4919L165.312 80.7839" stroke="#D4C0E2" stroke-width="2" stroke-miterlimit="10" stroke-linecap="round" stroke-linejoin="round"/>
<path d="M147.852 85.6079L145.332 89.9639" stroke="#D4C0E2" stroke-width="2" stroke-miterlimit="10" stroke-linecap="round" stroke-linejoin="round"/>
<path d="M152.496 77.5081L149.868 82.0801" stroke="#D4C0E2" stroke-width="2" stroke-miterlimit="10" stroke-linecap="round" stroke-linejoin="round"/>
<path d="M158.292 67.5L154.836 73.476" stroke="#D4C0E2" stroke-width="2" stroke-miterlimit="10" stroke-linecap="round" stroke-linejoin="round"/>
<path d="M138.492 81.252L136.764 85.968" stroke="#D4C0E2" stroke-width="2" stroke-miterlimit="10" stroke-linecap="round" stroke-linejoin="round"/>
<path d="M141.696 72.468L139.896 77.4" stroke="#D4C0E2" stroke-width="2" stroke-miterlimit="10" stroke-linecap="round" stroke-linejoin="round"/>
<path d="M145.656 61.5959L143.28 68.0759" stroke="#D4C0E2" stroke-width="2" stroke-miterlimit="10" stroke-linecap="round" stroke-linejoin="round"/>
<path d="M128.556 78.5881L127.656 83.5201" stroke="#D4C0E2" stroke-width="2" stroke-miterlimit="10" stroke-linecap="round" stroke-linejoin="round"/>
<path d="M130.176 69.3721L129.24 74.5561" stroke="#D4C0E2" stroke-width="2" stroke-miterlimit="10" stroke-linecap="round" stroke-linejoin="round"/>
<path d="M132.192 57.9961L130.968 64.7641" stroke="#D4C0E2" stroke-width="2" stroke-miterlimit="10" stroke-linecap="round" stroke-linejoin="round"/>
<path d="M58.6079 205.416L129.204 109.584L168.66 139.932" stroke="#D4C0E2" stroke-width="2" stroke-miterlimit="10" stroke-linecap="round" stroke-linejoin="round"/>
<path d="M150.624 164.412L201.06 95.9399L286.668 173.7" stroke="#D4C0E2" stroke-width="2" stroke-miterlimit="10" stroke-linecap="round" stroke-linejoin="round"/>
<path d="M106.38 140.724L109.908 145.26L118.44 141.876L129.492 146.124L134.064 141.876L142.704 144.72L147.384 137.592L158.364 141.984L162.684 135.324" stroke="#D4C0E2" stroke-width="2" stroke-miterlimit="10" stroke-linecap="round" stroke-linejoin="round"/>
<path d="M178.74 126.216L189.684 123.696L193.68 131.076L205.02 124.956L213.3 130.176L218.664 122.256L232.56 124.56" stroke="#D4C0E2" stroke-width="2" stroke-miterlimit="10" stroke-linecap="round" stroke-linejoin="round"/>
<path d="M224.748 99.2881H276.012C276.3 98.6041 276.48 97.8121 276.48 97.0201C276.48 93.8161 273.852 91.1881 270.648 91.1881C270 91.1881 269.388 91.2961 268.848 91.4761C267.516 87.8401 263.988 85.2481 259.884 85.2481C258.804 85.2481 257.76 85.4281 256.788 85.7521C254.736 81.2161 250.128 78.0481 244.836 78.0481C237.564 78.0481 231.696 83.9161 231.696 91.1881C231.696 91.9081 231.768 92.6281 231.876 93.3481C228.564 93.9601 225.9 96.2281 224.748 99.2881Z" stroke="#D4C0E2" stroke-width="2" stroke-miterlimit="10" stroke-linecap="round" stroke-linejoin="round"/>
<path d="M313.704 122.724C313.704 122.688 313.704 122.652 313.704 122.616C313.704 119.16 310.896 116.388 307.476 116.388C306.828 116.388 306.216 116.496 305.64 116.676C305.64 116.496 305.64 116.316 305.64 116.136C305.64 110.664 301.212 106.236 295.74 106.236C290.268 106.236 285.84 110.664 285.84 116.136C285.84 116.712 285.876 117.252 285.984 117.792C285.948 117.792 285.876 117.792 285.84 117.792C283.176 117.792 280.98 119.952 280.98 122.652C280.98 122.688 280.98 122.724 280.98 122.796H313.704V122.724Z" stroke="#D4C0E2" stroke-width="2" stroke-miterlimit="10" stroke-linecap="round" stroke-linejoin="round"/>
<path d="M213.12 54.6121L208.8 58.9321L204.48 54.6121" stroke="#D4C0E2" stroke-width="2" stroke-miterlimit="10" stroke-linecap="round" stroke-linejoin="round"/>
<path d="M245.268 60.228L240.948 64.548L236.592 60.228" stroke="#D4C0E2" stroke-width="2" stroke-miterlimit="10" stroke-linecap="round" stroke-linejoin="round"/>
<path d="M313.74 83.448L309.384 87.768L305.064 83.448" stroke="#D4C0E2" stroke-width="2" stroke-miterlimit="10" stroke-linecap="round" stroke-linejoin="round"/>
</g>
</g>
<mask id="mask1_400_782" style="mask-type:luminance" maskUnits="userSpaceOnUse" x="0" y="0" width="360" height="360">
<path d="M360 0H0V360H360V0Z" fill="white"/>
</mask>
<g mask="url(#mask1_400_782)">
<path d="M231.588 187.056H194.544V261.36H231.588V187.056Z" fill="#FFC299"/>
<path d="M231.588 187.056H194.544V261.36H231.588V187.056Z" fill="white"/>
<path opacity="0.34" d="M199.44 187.056H194.544V261.36H199.44V187.056Z" fill="#333333"/>
<path d="M231.588 187.056H194.544V261.36H231.588V187.056Z" stroke="#170E10" stroke-width="2" stroke-miterlimit="10" stroke-linecap="round" stroke-linejoin="round"/>
<path d="M200.592 245.16H226.476" stroke="#260005" stroke-width="2" stroke-miterlimit="10" stroke-linejoin="round"/>
<path d="M200.592 235.8H226.476" stroke="#260005" stroke-width="2" stroke-miterlimit="10" stroke-linejoin="round"/>
<path d="M200.592 226.44H226.476" stroke="#260005" stroke-width="2" stroke-miterlimit="10" stroke-linejoin="round"/>
<path d="M200.592 217.08H226.476" stroke="#260005" stroke-width="2" stroke-miterlimit="10" stroke-linejoin="round"/>
<path d="M200.592 207.72H226.476" stroke="#260005" stroke-width="2" stroke-miterlimit="10" stroke-linejoin="round"/>
<path d="M200.592 198.36H226.476" stroke="#260005" stroke-width="2" stroke-miterlimit="10" stroke-linejoin="round"/>
<path d="M195.336 157.68H142.056V261.36H195.336V157.68Z" fill="#9DD7CE"/>
<path opacity="0.69" d="M146.88 157.68H142.056V261.36H146.88V157.68Z" fill="#333333"/>
<path d="M130.536 99.9719H113.256V87.0119C113.256 84.6359 115.2 82.6919 117.576 82.6919H126.216C128.592 82.6919 130.536 84.6359 130.536 87.0119V99.9719Z" fill="#C0BFBF"/>
<path opacity="0.69" d="M122.148 82.6919H117.54C115.164 82.6919 113.22 84.6359 113.22 87.0119V99.9719H117.828V87.0119C117.828 84.6359 119.772 82.6919 122.148 82.6919Z" fill="#333333"/>
<path d="M130.536 99.9719H113.256V87.0119C113.256 84.6359 115.2 82.6919 117.576 82.6919H126.216C128.592 82.6919 130.536 84.6359 130.536 87.0119V99.9719Z" stroke="#170E10" stroke-width="2" stroke-miterlimit="10" stroke-linecap="round" stroke-linejoin="round"/>
<path d="M122.04 82.7999V65.8799" stroke="#170E10" stroke-width="2" stroke-miterlimit="10" stroke-linecap="round" stroke-linejoin="round"/>
<path d="M331.92 261.36H340.416" stroke="#170E10" stroke-width="2" stroke-miterlimit="10" stroke-linecap="round" stroke-linejoin="round"/>
<path d="M252.9 261.36H325.764" stroke="#170E10" stroke-width="2" stroke-miterlimit="10" stroke-linecap="round" stroke-linejoin="round"/>
<path d="M240.84 261.36H244.08" stroke="#170E10" stroke-width="2" stroke-miterlimit="10" stroke-linecap="round" stroke-linejoin="round"/>
<path d="M63.1799 261.36H235.62" stroke="#170E10" stroke-width="2" stroke-miterlimit="10" stroke-linecap="round" stroke-linejoin="round"/>
<path d="M54.6121 261.36H57.6361" stroke="#170E10" stroke-width="2" stroke-miterlimit="10" stroke-linecap="round" stroke-linejoin="round"/>
<path d="M23.5081 261.36H48.6001" stroke="#170E10" stroke-width="2" stroke-miterlimit="10" stroke-linecap="round" stroke-linejoin="round"/>
<path d="M142.056 124.236H101.736V261.36H142.056V124.236Z" fill="#C0BFBF"/>
<path opacity="0.69" d="M105.84 124.236H101.736V261.36H105.84V124.236Z" fill="#333333"/>
<path d="M142.056 124.236H101.736V261.36H142.056V124.236Z" stroke="#170E10" stroke-width="2" stroke-miterlimit="10" stroke-linecap="round" stroke-linejoin="round"/>
<path d="M108.72 231.48H135" stroke="#170E10" stroke-width="2" stroke-miterlimit="10" stroke-linejoin="round"/>
<path d="M108.72 235.8H135" stroke="#170E10" stroke-width="2" stroke-miterlimit="10" stroke-linejoin="round"/>
<path d="M108.72 219.24H135" stroke="#170E10" stroke-width="2" stroke-miterlimit="10" stroke-linejoin="round"/>
<path d="M108.72 223.56H135" stroke="#170E10" stroke-width="2" stroke-miterlimit="10" stroke-linejoin="round"/>
<path d="M108.72 207H135" stroke="#170E10" stroke-width="2" stroke-miterlimit="10" stroke-linejoin="round"/>
<path d="M108.72 211.32H135" stroke="#170E10" stroke-width="2" stroke-miterlimit="10" stroke-linejoin="round"/>
<path d="M108.72 194.76H135" stroke="#170E10" stroke-width="2" stroke-miterlimit="10" stroke-linejoin="round"/>
<path d="M108.72 199.08H135" stroke="#170E10" stroke-width="2" stroke-miterlimit="10" stroke-linejoin="round"/>
<path d="M108.72 182.52H135" stroke="#170E10" stroke-width="2" stroke-miterlimit="10" stroke-linejoin="round"/>
<path d="M108.72 186.84H135" stroke="#170E10" stroke-width="2" stroke-miterlimit="10" stroke-linejoin="round"/>
<path d="M108.72 170.28H135" stroke="#170E10" stroke-width="2" stroke-miterlimit="10" stroke-linejoin="round"/>
<path d="M108.72 174.6H135" stroke="#170E10" stroke-width="2" stroke-miterlimit="10" stroke-linejoin="round"/>
<path d="M108.72 158.04H135" stroke="#170E10" stroke-width="2" stroke-miterlimit="10" stroke-linejoin="round"/>
<path d="M108.72 162.36H135" stroke="#170E10" stroke-width="2" stroke-miterlimit="10" stroke-linejoin="round"/>
<path d="M108.72 145.8H135" stroke="#170E10" stroke-width="2" stroke-miterlimit="10" stroke-linejoin="round"/>
<path d="M108.72 150.12H135" stroke="#170E10" stroke-width="2" stroke-miterlimit="10" stroke-linejoin="round"/>
<path d="M108.72 133.56H135" stroke="#170E10" stroke-width="2" stroke-miterlimit="10" stroke-linejoin="round"/>
<path d="M108.72 137.88H135" stroke="#170E10" stroke-width="2" stroke-miterlimit="10" stroke-linejoin="round"/>
<path d="M135.216 124.236H108.576V108.756C108.576 101.412 114.552 95.4358 121.896 95.4358C129.24 95.4358 135.216 101.412 135.216 108.756V124.236Z" fill="#C0BFBF"/>
<path opacity="0.69" d="M124.236 95.6518C123.48 95.5078 122.688 95.4358 121.896 95.4358C114.552 95.4358 108.576 101.412 108.576 108.756V124.236H113.256V108.756C113.256 102.204 117.972 96.7678 124.236 95.6518Z" fill="#333333"/>
<path d="M135.216 124.236H108.576V108.756C108.576 101.412 114.552 95.4358 121.896 95.4358C129.24 95.4358 135.216 101.412 135.216 108.756V124.236Z" stroke="#170E10" stroke-width="2" stroke-miterlimit="10" stroke-linecap="round" stroke-linejoin="round"/>
<path d="M195.336 157.68H142.056V261.36H195.336V157.68Z" stroke="#170E10" stroke-width="2" stroke-miterlimit="10" stroke-linecap="round" stroke-linejoin="round"/>
<path d="M197.028 150.48H142.056V157.68H197.028V150.48Z" fill="#BD2B3E"/>
<path d="M197.28 150.48H142.056V157.68H197.28V150.48Z" stroke="#170E10" stroke-width="2" stroke-miterlimit="10" stroke-linecap="round" stroke-linejoin="round"/>
<path d="M130.536 242.82H113.256V261.36H130.536V242.82Z" fill="white"/>
<path opacity="0.34" d="M130.536 243.54H113.256V247.32H130.536V243.54Z" fill="#333333"/>
<path opacity="0.34" d="M117.252 247.32H113.256V261.36H117.252V247.32Z" fill="#333333"/>
<path d="M130.536 242.82H113.256V261.36H130.536V242.82Z" stroke="#170E10" stroke-width="2" stroke-miterlimit="10" stroke-linecap="round" stroke-linejoin="round"/>
<path d="M186.48 241.2V246.6" stroke="#170E10" stroke-width="2" stroke-miterlimit="10" stroke-linejoin="round"/>
<path d="M179.28 241.2V246.6" stroke="#170E10" stroke-width="2" stroke-miterlimit="10" stroke-linejoin="round"/>
<path d="M172.08 241.2V246.6" stroke="#170E10" stroke-width="2" stroke-miterlimit="10" stroke-linejoin="round"/>
<path d="M164.88 241.2V246.6" stroke="#170E10" stroke-width="2" stroke-miterlimit="10" stroke-linejoin="round"/>
<path d="M157.68 241.2V246.6" stroke="#170E10" stroke-width="2" stroke-miterlimit="10" stroke-linejoin="round"/>
<path d="M150.48 241.2V246.6" stroke="#170E10" stroke-width="2" stroke-miterlimit="10" stroke-linejoin="round"/>
<path d="M186.48 226.8V232.2" stroke="#170E10" stroke-width="2" stroke-miterlimit="10" stroke-linejoin="round"/>
<path d="M179.28 226.8V232.2" stroke="#170E10" stroke-width="2" stroke-miterlimit="10" stroke-linejoin="round"/>
<path d="M172.08 226.8V232.2" stroke="#170E10" stroke-width="2" stroke-miterlimit="10" stroke-linejoin="round"/>
<path d="M164.88 226.8V232.2" stroke="#170E10" stroke-width="2" stroke-miterlimit="10" stroke-linejoin="round"/>
<path d="M157.68 226.8V232.2" stroke="#170E10" stroke-width="2" stroke-miterlimit="10" stroke-linejoin="round"/>
<path d="M150.48 226.8V232.2" stroke="#170E10" stroke-width="2" stroke-miterlimit="10" stroke-linejoin="round"/>
<path d="M186.48 212.4V217.8" stroke="#170E10" stroke-width="2" stroke-miterlimit="10" stroke-linejoin="round"/>
<path d="M179.28 212.4V217.8" stroke="#170E10" stroke-width="2" stroke-miterlimit="10" stroke-linejoin="round"/>
<path d="M172.08 212.4V217.8" stroke="#170E10" stroke-width="2" stroke-miterlimit="10" stroke-linejoin="round"/>
<path d="M164.88 212.4V217.8" stroke="#170E10" stroke-width="2" stroke-miterlimit="10" stroke-linejoin="round"/>
<path d="M157.68 212.4V217.8" stroke="#170E10" stroke-width="2" stroke-miterlimit="10" stroke-linejoin="round"/>
<path d="M150.48 212.4V217.8" stroke="#170E10" stroke-width="2" stroke-miterlimit="10" stroke-linejoin="round"/>
<path d="M186.48 198V203.4" stroke="#170E10" stroke-width="2" stroke-miterlimit="10" stroke-linejoin="round"/>
<path d="M179.28 198V203.4" stroke="#170E10" stroke-width="2" stroke-miterlimit="10" stroke-linejoin="round"/>
<path d="M172.08 198V203.4" stroke="#170E10" stroke-width="2" stroke-miterlimit="10" stroke-linejoin="round"/>
<path d="M164.88 198V203.4" stroke="#170E10" stroke-width="2" stroke-miterlimit="10" stroke-linejoin="round"/>
<path d="M157.68 198V203.4" stroke="#170E10" stroke-width="2" stroke-miterlimit="10" stroke-linejoin="round"/>
<path d="M150.48 198V203.4" stroke="#170E10" stroke-width="2" stroke-miterlimit="10" stroke-linejoin="round"/>
<path d="M186.48 183.6V189" stroke="#170E10" stroke-width="2" stroke-miterlimit="10" stroke-linejoin="round"/>
<path d="M179.28 183.6V189" stroke="#170E10" stroke-width="2" stroke-miterlimit="10" stroke-linejoin="round"/>
<path d="M172.08 183.6V189" stroke="#170E10" stroke-width="2" stroke-miterlimit="10" stroke-linejoin="round"/>
<path d="M164.88 183.6V189" stroke="#170E10" stroke-width="2" stroke-miterlimit="10" stroke-linejoin="round"/>
<path d="M157.68 183.6V189" stroke="#170E10" stroke-width="2" stroke-miterlimit="10" stroke-linejoin="round"/>
<path d="M150.48 183.6V189" stroke="#170E10" stroke-width="2" stroke-miterlimit="10" stroke-linejoin="round"/>
<path d="M186.48 169.2V174.6" stroke="#170E10" stroke-width="2" stroke-miterlimit="10" stroke-linejoin="round"/>
<path d="M179.28 169.2V174.6" stroke="#170E10" stroke-width="2" stroke-miterlimit="10" stroke-linejoin="round"/>
<path d="M172.08 169.2V174.6" stroke="#170E10" stroke-width="2" stroke-miterlimit="10" stroke-linejoin="round"/>
<path d="M164.88 169.2V174.6" stroke="#170E10" stroke-width="2" stroke-miterlimit="10" stroke-linejoin="round"/>
<path d="M157.68 169.2V174.6" stroke="#170E10" stroke-width="2" stroke-miterlimit="10" stroke-linejoin="round"/>
<path d="M150.48 169.2V174.6" stroke="#170E10" stroke-width="2" stroke-miterlimit="10" stroke-linejoin="round"/>
<path d="M179.64 240.588H157.5V261.36H179.64V240.588Z" fill="#FFC299"/>
<path opacity="0.69" d="M179.64 240.588H157.5V245.412H179.64V240.588Z" fill="#333333"/>
<path opacity="0.69" d="M161.82 245.448H157.5V261.36H161.82V245.448Z" fill="#333333"/>
<path d="M179.64 240.588H157.5V261.36H179.64V240.588Z" stroke="#170E10" stroke-width="2" stroke-miterlimit="10" stroke-linecap="round" stroke-linejoin="round"/>
<path d="M101.34 157.68H79.5239V261.36H101.34V157.68Z" fill="#BD2B3E"/>
<path opacity="0.53" d="M83.1599 157.68H79.5239V261.36H83.1599V157.68Z" fill="#333333"/>
<path d="M101.34 157.68H79.5239V261.36H101.34V157.68Z" stroke="#170E10" stroke-width="2" stroke-miterlimit="10" stroke-linecap="round" stroke-linejoin="round"/>
<path d="M85.6799 226.8V232.2" stroke="#260005" stroke-width="2" stroke-miterlimit="10" stroke-linejoin="round"/>
<path opacity="0.36" d="M85.6799 234V236.16" stroke="#FF99AA" stroke-width="2" stroke-miterlimit="10" stroke-linejoin="round"/>
<path d="M90.3599 226.8V232.2" stroke="#260005" stroke-width="2" stroke-miterlimit="10" stroke-linejoin="round"/>
<path opacity="0.36" d="M90.3599 234V236.16" stroke="#FF99AA" stroke-width="2" stroke-miterlimit="10" stroke-linejoin="round"/>
<path d="M95.04 226.8V232.2" stroke="#260005" stroke-width="2" stroke-miterlimit="10" stroke-linejoin="round"/>
<path opacity="0.36" d="M95.04 234V236.16" stroke="#FF99AA" stroke-width="2" stroke-miterlimit="10" stroke-linejoin="round"/>
<path d="M85.6799 210.96V216.36" stroke="#260005" stroke-width="2" stroke-miterlimit="10" stroke-linejoin="round"/>
<path opacity="0.36" d="M85.6799 218.16V220.32" stroke="#FF99AA" stroke-width="2" stroke-miterlimit="10" stroke-linejoin="round"/>
<path d="M90.3599 210.96V216.36" stroke="#260005" stroke-width="2" stroke-miterlimit="10" stroke-linejoin="round"/>
<path opacity="0.36" d="M90.3599 218.16V220.32" stroke="#FF99AA" stroke-width="2" stroke-miterlimit="10" stroke-linejoin="round"/>
<path d="M95.04 210.96V216.36" stroke="#260005" stroke-width="2" stroke-miterlimit="10" stroke-linejoin="round"/>
<path opacity="0.36" d="M95.04 218.16V220.32" stroke="#FF99AA" stroke-width="2" stroke-miterlimit="10" stroke-linejoin="round"/>
<path d="M85.6799 195.12V200.52" stroke="#260005" stroke-width="2" stroke-miterlimit="10" stroke-linejoin="round"/>
<path opacity="0.36" d="M85.6799 202.32V204.48" stroke="#FF99AA" stroke-width="2" stroke-miterlimit="10" stroke-linejoin="round"/>
<path d="M90.3599 195.12V200.52" stroke="#260005" stroke-width="2" stroke-miterlimit="10" stroke-linejoin="round"/>
<path opacity="0.36" d="M90.3599 202.32V204.48" stroke="#FF99AA" stroke-width="2" stroke-miterlimit="10" stroke-linejoin="round"/>
<path d="M95.04 195.12V200.52" stroke="#260005" stroke-width="2" stroke-miterlimit="10" stroke-linejoin="round"/>
<path opacity="0.36" d="M95.04 202.32V204.48" stroke="#FF99AA" stroke-width="2" stroke-miterlimit="10" stroke-linejoin="round"/>
<path d="M85.6799 179.28V184.68" stroke="#260005" stroke-width="2" stroke-miterlimit="10" stroke-linejoin="round"/>
<path opacity="0.36" d="M85.6799 186.48V188.64" stroke="#FF99AA" stroke-width="2" stroke-miterlimit="10" stroke-linejoin="round"/>
<path d="M90.3599 179.28V184.68" stroke="#260005" stroke-width="2" stroke-miterlimit="10" stroke-linejoin="round"/>
<path opacity="0.36" d="M90.3599 186.48V188.64" stroke="#FF99AA" stroke-width="2" stroke-miterlimit="10" stroke-linejoin="round"/>
<path d="M95.04 179.28V184.68" stroke="#260005" stroke-width="2" stroke-miterlimit="10" stroke-linejoin="round"/>
<path opacity="0.36" d="M95.04 186.48V188.64" stroke="#FF99AA" stroke-width="2" stroke-miterlimit="10" stroke-linejoin="round"/>
<path d="M85.6799 163.44V168.84" stroke="#260005" stroke-width="2" stroke-miterlimit="10" stroke-linejoin="round"/>
<path opacity="0.36" d="M85.6799 170.64V172.8" stroke="#FF99AA" stroke-width="2" stroke-miterlimit="10" stroke-linejoin="round"/>
<path d="M90.3599 163.44V168.84" stroke="#260005" stroke-width="2" stroke-miterlimit="10" stroke-linejoin="round"/>
<path opacity="0.36" d="M90.3599 170.64V172.8" stroke="#FF99AA" stroke-width="2" stroke-miterlimit="10" stroke-linejoin="round"/>
<path d="M95.04 163.44V168.84" stroke="#260005" stroke-width="2" stroke-miterlimit="10" stroke-linejoin="round"/>
<path opacity="0.36" d="M95.04 170.64V172.8" stroke="#FF99AA" stroke-width="2" stroke-miterlimit="10" stroke-linejoin="round"/>
<path d="M94.3201 244.08H87.1201V261.36H94.3201V244.08Z" fill="white"/>
<path d="M94.3201 244.08H87.1201V261.36H94.3201V244.08Z" stroke="#170E10" stroke-width="2" stroke-miterlimit="10" stroke-linecap="round" stroke-linejoin="round"/>
<path d="M189 133.56V149.652" stroke="#170E10" stroke-width="2" stroke-miterlimit="10" stroke-linecap="round" stroke-linejoin="round"/>
<path d="M185.508 136.908H192.708" stroke="#170E10" stroke-width="2" stroke-miterlimit="10" stroke-linecap="round" stroke-linejoin="round"/>
<path d="M183.168 141.588H195.336" stroke="#170E10" stroke-width="2" stroke-miterlimit="10" stroke-linecap="round" stroke-linejoin="round"/>
<path d="M292.68 261.36V197.64" stroke="#170E10" stroke-width="2" stroke-miterlimit="10" stroke-linecap="round" stroke-linejoin="round"/>
<path d="M279 201.312V197.64" stroke="#170E10" stroke-width="2" stroke-miterlimit="10" stroke-linecap="round" stroke-linejoin="round"/>
<path d="M279 197.64C279 193.86 282.06 190.8 285.84 190.8C289.62 190.8 292.68 193.86 292.68 197.64" stroke="#170E10" stroke-width="2" stroke-miterlimit="10" stroke-linecap="round" stroke-linejoin="round"/>
<path d="M285.3 207.828H272.7L279 200.52L285.3 207.828Z" stroke="#170E10" stroke-width="2" stroke-miterlimit="10" stroke-linecap="round" stroke-linejoin="round"/>
<path d="M71.1001 261.36V198.36" stroke="#170E10" stroke-width="2" stroke-miterlimit="10" stroke-linecap="round" stroke-linejoin="round"/>
<path d="M57.4199 201.564V198.36" stroke="#170E10" stroke-width="2" stroke-miterlimit="10" stroke-linecap="round" stroke-linejoin="round"/>
<path d="M57.4199 198.36C57.4199 194.58 60.4799 191.52 64.2599 191.52C68.0399 191.52 71.0999 194.58 71.0999 198.36" stroke="#170E10" stroke-width="2" stroke-miterlimit="10" stroke-linecap="round" stroke-linejoin="round"/>
<path d="M63.7201 208.548H51.1201L57.4201 201.24L63.7201 208.548Z" fill="white"/>
<path d="M63.7201 208.548H51.1201L57.4201 201.24L63.7201 208.548Z" stroke="#170E10" stroke-width="2" stroke-miterlimit="10" stroke-linecap="round" stroke-linejoin="round"/>
<path d="M38.2681 248.652C46.4199 248.652 53.0281 239.481 53.0281 228.168C53.0281 216.855 46.4199 207.684 38.2681 207.684C30.1164 207.684 23.5081 216.855 23.5081 228.168C23.5081 239.481 30.1164 248.652 38.2681 248.652Z" fill="#FF6550"/>
<path opacity="0.53" d="M27.576 228.168C27.576 217.98 32.94 209.556 39.96 207.972C39.168 207.792 38.376 207.684 37.584 207.684C29.448 207.684 22.824 216.864 22.824 228.168C22.824 239.472 29.448 248.652 37.584 248.652C38.412 248.652 39.204 248.544 39.96 248.364C32.904 246.78 27.576 238.356 27.576 228.168Z" fill="#333333"/>
<path d="M38.2681 248.652C46.4199 248.652 53.0281 239.481 53.0281 228.168C53.0281 216.855 46.4199 207.684 38.2681 207.684C30.1164 207.684 23.5081 216.855 23.5081 228.168C23.5081 239.481 30.1164 248.652 38.2681 248.652Z" stroke="#170E10" stroke-width="2" stroke-miterlimit="10" stroke-linecap="round" stroke-linejoin="round"/>
<path d="M38.8081 240.192L43.0561 235.98" stroke="#170E10" stroke-width="2" stroke-miterlimit="10" stroke-linecap="round" stroke-linejoin="round"/>
<path d="M38.2681 233.784L33.7681 229.536" stroke="#170E10" stroke-width="2" stroke-miterlimit="10" stroke-linecap="round" stroke-linejoin="round"/>
<path d="M201.42 252.864C206.39 252.864 210.42 247.319 210.42 240.48C210.42 233.64 206.39 228.096 201.42 228.096C196.449 228.096 192.42 233.64 192.42 240.48C192.42 247.319 196.449 252.864 201.42 252.864Z" fill="#E97E1C"/>
<path opacity="0.53" d="M196.02 240.48C196.02 234.504 199.116 229.5 203.22 228.348C202.644 228.204 202.032 228.096 201.42 228.096C196.452 228.096 192.42 233.64 192.42 240.48C192.42 247.32 196.452 252.864 201.42 252.864C202.032 252.864 202.644 252.792 203.22 252.612C199.116 251.46 196.02 246.456 196.02 240.48Z" fill="#333333"/>
<path d="M201.42 252.864C206.39 252.864 210.42 247.319 210.42 240.48C210.42 233.64 206.39 228.096 201.42 228.096C196.449 228.096 192.42 233.64 192.42 240.48C192.42 247.319 196.449 252.864 201.42 252.864Z" stroke="#170E10" stroke-width="2" stroke-miterlimit="10" stroke-linecap="round" stroke-linejoin="round"/>
<path d="M274.608 228.672C275.976 241.452 266.292 246.6 261.036 246.276C255.744 246.6 246.096 241.452 247.464 228.672C249.912 216.288 255.276 206.712 261.036 206.748C266.76 206.712 272.16 216.288 274.608 228.672Z" fill="#D44644"/>
<path opacity="0.53" d="M264.492 245.556C259.2 245.88 249.552 240.732 250.92 227.952C252.936 217.656 257.04 209.268 261.648 206.784C261.432 206.748 261.252 206.748 261.036 206.748C255.276 206.676 249.876 216.252 247.464 228.672C246.096 241.452 255.78 246.6 261.036 246.276C262.296 246.348 263.772 246.132 265.284 245.556C264.996 245.592 264.744 245.592 264.492 245.556Z" fill="#333333"/>
<path d="M274.608 228.672C275.976 241.452 266.292 246.6 261.036 246.276C255.744 246.6 246.096 241.452 247.464 228.672C249.912 216.288 255.276 206.712 261.036 206.748C266.76 206.712 272.16 216.288 274.608 228.672Z" stroke="#170E10" stroke-width="2" stroke-miterlimit="10" stroke-linecap="round" stroke-linejoin="round"/>
<path d="M261.036 237.708L265.572 233.172" stroke="#170E10" stroke-width="2" stroke-miterlimit="10" stroke-linecap="round" stroke-linejoin="round"/>
<path d="M261.036 229.86L256.068 224.892" stroke="#170E10" stroke-width="2" stroke-miterlimit="10" stroke-linecap="round" stroke-linejoin="round"/>
<path d="M201.42 244.26V246.312V247.932V260.784" stroke="#170E10" stroke-width="2" stroke-miterlimit="10" stroke-linecap="round" stroke-linejoin="round"/>
<path d="M261.036 220.5V261.36" stroke="#170E10" stroke-width="2" stroke-miterlimit="10" stroke-linecap="round" stroke-linejoin="round"/>
<path d="M38.8081 224.28V261.36" stroke="#170E10" stroke-width="2" stroke-miterlimit="10" stroke-linecap="round" stroke-linejoin="round"/>
<path d="M311.004 247.5C319.156 247.5 325.764 238.329 325.764 227.016C325.764 215.703 319.156 206.532 311.004 206.532C302.852 206.532 296.244 215.703 296.244 227.016C296.244 238.329 302.852 247.5 311.004 247.5Z" fill="#E97E1C"/>
<path opacity="0.53" d="M299.844 227.016C299.844 216.576 305.496 207.936 312.804 206.712C312.228 206.604 311.616 206.568 311.004 206.568C302.868 206.568 296.244 215.748 296.244 227.052C296.244 238.356 302.868 247.536 311.004 247.536C311.616 247.536 312.228 247.464 312.804 247.392C305.496 246.096 299.844 237.456 299.844 227.016Z" fill="#333333"/>
<path d="M311.004 247.5C319.156 247.5 325.764 238.329 325.764 227.016C325.764 215.703 319.156 206.532 311.004 206.532C302.852 206.532 296.244 215.703 296.244 227.016C296.244 238.329 302.852 247.5 311.004 247.5Z" stroke="#170E10" stroke-width="2" stroke-miterlimit="10" stroke-linecap="round" stroke-linejoin="round"/>
<path d="M311.58 240.84L315.792 236.628" stroke="#170E10" stroke-width="2" stroke-miterlimit="10" stroke-linecap="round" stroke-linejoin="round"/>
<path d="M311.004 234.396L306.504 230.184" stroke="#170E10" stroke-width="2" stroke-miterlimit="10" stroke-linecap="round" stroke-linejoin="round"/>
<path d="M311.58 224.892V261.216" stroke="#170E10" stroke-width="2" stroke-miterlimit="10" stroke-linecap="round" stroke-linejoin="round"/>
<path d="M117.828 111.132V124.236" stroke="#170E10" stroke-width="2" stroke-miterlimit="10" stroke-linejoin="round"/>
<path d="M125.64 111.132V124.236" stroke="#170E10" stroke-width="2" stroke-miterlimit="10" stroke-linejoin="round"/>
<path opacity="0.55" d="M38.1599 217.62C38.8558 217.62 39.4199 217.056 39.4199 216.36C39.4199 215.664 38.8558 215.1 38.1599 215.1C37.464 215.1 36.8999 215.664 36.8999 216.36C36.8999 217.056 37.464 217.62 38.1599 217.62Z" fill="white"/>
<path opacity="0.55" d="M45.9359 231.66C46.8305 231.66 47.5559 230.935 47.5559 230.04C47.5559 229.145 46.8305 228.42 45.9359 228.42C45.0413 228.42 44.3159 229.145 44.3159 230.04C44.3159 230.935 45.0413 231.66 45.9359 231.66Z" fill="white"/>
<path opacity="0.53" d="M44.6759 223.092C45.5705 223.092 46.2959 222.366 46.2959 221.472C46.2959 220.577 45.5705 219.852 44.6759 219.852C43.7813 219.852 43.0559 220.577 43.0559 221.472C43.0559 222.366 43.7813 223.092 44.6759 223.092Z" fill="#333333"/>
<path opacity="0.53" d="M33.7681 224.748C34.4242 224.748 34.9561 224.216 34.9561 223.56C34.9561 222.904 34.4242 222.372 33.7681 222.372C33.112 222.372 32.5801 222.904 32.5801 223.56C32.5801 224.216 33.112 224.748 33.7681 224.748Z" fill="#333333"/>
<path opacity="0.55" d="M200.304 235.548C200.781 235.548 201.168 235.161 201.168 234.684C201.168 234.207 200.781 233.82 200.304 233.82C199.827 233.82 199.44 234.207 199.44 234.684C199.44 235.161 199.827 235.548 200.304 235.548Z" fill="white"/>
<path opacity="0.53" d="M205.524 239.328C206.2 239.328 206.748 238.78 206.748 238.104C206.748 237.428 206.2 236.88 205.524 236.88C204.848 236.88 204.3 237.428 204.3 238.104C204.3 238.78 204.848 239.328 205.524 239.328Z" fill="#333333"/>
<path opacity="0.55" d="M260.496 217.944C260.973 217.944 261.36 217.557 261.36 217.08C261.36 216.602 260.973 216.216 260.496 216.216C260.019 216.216 259.632 216.602 259.632 217.08C259.632 217.557 260.019 217.944 260.496 217.944Z" fill="white"/>
<path opacity="0.55" d="M267.588 228.384C268.264 228.384 268.812 227.836 268.812 227.16C268.812 226.484 268.264 225.936 267.588 225.936C266.912 225.936 266.364 226.484 266.364 227.16C266.364 227.836 266.912 228.384 267.588 228.384Z" fill="white"/>
<path opacity="0.53" d="M265.716 221.724C266.392 221.724 266.94 221.176 266.94 220.5C266.94 219.824 266.392 219.276 265.716 219.276C265.04 219.276 264.492 219.824 264.492 220.5C264.492 221.176 265.04 221.724 265.716 221.724Z" fill="#333333"/>
<path opacity="0.53" d="M256.068 235.044C256.744 235.044 257.292 234.496 257.292 233.82C257.292 233.144 256.744 232.596 256.068 232.596C255.392 232.596 254.844 233.144 254.844 233.82C254.844 234.496 255.392 235.044 256.068 235.044Z" fill="#333333"/>
<path opacity="0.55" d="M316.476 222.948C317.41 222.948 318.168 222.191 318.168 221.256C318.168 220.322 317.41 219.564 316.476 219.564C315.541 219.564 314.784 220.322 314.784 221.256C314.784 222.191 315.541 222.948 316.476 222.948Z" fill="white"/>
<path opacity="0.53" d="M315.756 231.372C316.432 231.372 316.98 230.824 316.98 230.148C316.98 229.472 316.432 228.924 315.756 228.924C315.08 228.924 314.532 229.472 314.532 230.148C314.532 230.824 315.08 231.372 315.756 231.372Z" fill="#333333"/>
<path opacity="0.53" d="M309.924 218.592C310.6 218.592 311.148 218.044 311.148 217.368C311.148 216.692 310.6 216.144 309.924 216.144C309.248 216.144 308.7 216.692 308.7 217.368C308.7 218.044 309.248 218.592 309.924 218.592Z" fill="#333333"/>
<path d="M256.608 261.36C256.608 257.22 259.956 253.908 264.06 253.908C268.164 253.908 271.512 257.256 271.512 261.36H256.608Z" fill="#E97E1C"/>
<path opacity="0.53" d="M266.256 254.232C265.572 254.016 264.816 253.908 264.024 253.908C259.884 253.908 256.572 257.256 256.572 261.36H261C261.036 258.012 263.232 255.168 266.256 254.232Z" fill="#333333"/>
<path d="M256.608 261.36C256.608 257.22 259.956 253.908 264.06 253.908C268.164 253.908 271.512 257.256 271.512 261.36H256.608Z" stroke="#170E10" stroke-width="2" stroke-miterlimit="10" stroke-linecap="round" stroke-linejoin="round"/>
<path d="M266.04 261.36C266.04 255.42 270.828 250.632 276.768 250.632C282.708 250.632 287.496 255.42 287.496 261.36H266.04Z" fill="#D44644"/>
<path opacity="0.53" d="M278.82 250.848C278.136 250.704 277.452 250.632 276.732 250.632C270.792 250.632 266.004 255.42 266.004 261.36H270.144C270.18 256.14 273.888 251.784 278.82 250.848Z" fill="#333333"/>
<path d="M266.04 261.36C266.04 255.42 270.828 250.632 276.768 250.632C282.708 250.632 287.496 255.42 287.496 261.36H266.04Z" stroke="#170E10" stroke-width="2" stroke-miterlimit="10" stroke-linecap="round" stroke-linejoin="round"/>
</g>
</g>
<defs>
<clipPath id="clip0_400_782">
<rect width="360" height="360" fill="white"/>
</clipPath>
<clipPath id="clip1_400_782">
<rect width="360" height="360" fill="white"/>
</clipPath>
</defs>
</svg>
