<svg width="360" height="360" viewBox="0 0 360 360" fill="none" xmlns="http://www.w3.org/2000/svg">
<g opacity="0.7" clip-path="url(#clip0_823_2304)">
<g clip-path="url(#clip1_823_2304)">
<path d="M360 0H0V360H360V0Z" fill="transparent"/>
<path d="M95 144C120.405 144 141 123.181 141 97.4999C141 71.8187 120.405 50.9999 95 50.9999C69.5949 50.9999 49 71.8187 49 97.4999C49 123.181 69.5949 144 95 144Z" fill="#D9D9D9"/>
<path d="M79.8243 102.875C84.4062 102.875 88.1206 99.1201 88.1206 94.4884C88.1206 89.8567 84.4062 86.1019 79.8243 86.1019C75.2425 86.1019 71.5281 89.8567 71.5281 94.4884C71.5281 99.1201 75.2425 102.875 79.8243 102.875Z" fill="white"/>
<path d="M102.894 83.1573C109.201 83.1573 114.313 77.9894 114.313 71.6144C114.313 65.2394 109.201 60.0715 102.894 60.0715C96.588 60.0715 91.4756 65.2394 91.4756 71.6144C91.4756 77.9894 96.588 83.1573 102.894 83.1573Z" fill="white"/>
<path d="M58.6079 205.416L129.204 109.584L168.66 139.932" stroke="#D4C0E2" stroke-width="2" stroke-miterlimit="10" stroke-linecap="round" stroke-linejoin="round"/>
<path d="M150.624 164.412L201.06 95.94L286.668 173.7" stroke="#D4C0E2" stroke-width="2" stroke-miterlimit="10" stroke-linecap="round" stroke-linejoin="round"/>
<path d="M106.38 140.724L109.908 145.26L118.44 141.876L129.492 146.124L134.064 141.876L142.704 144.72L147.384 137.592L158.364 141.984L162.684 135.324" stroke="#D4C0E2" stroke-width="2" stroke-miterlimit="10" stroke-linecap="round" stroke-linejoin="round"/>
<path d="M178.74 126.216L189.684 123.696L193.68 131.076L205.02 124.956L213.3 130.176L218.664 122.256L232.56 124.56" stroke="#D4C0E2" stroke-width="2" stroke-miterlimit="10" stroke-linecap="round" stroke-linejoin="round"/>
</g>
<path d="M31.5092 84.5828C30.9547 84.5828 30.423 84.3624 30.031 83.9705C29.6388 83.5783 29.4185 83.0465 29.4185 82.4922C29.4259 82.1285 29.2978 81.7752 29.0595 81.5005C28.8211 81.2258 28.4891 81.0496 28.1281 81.0057C27.9319 80.9881 27.7344 81.0114 27.5478 81.0744C27.3612 81.1373 27.1898 81.2385 27.0443 81.3714C26.8991 81.5042 26.7829 81.6659 26.7037 81.8461C26.6241 82.0261 26.5832 82.221 26.5832 82.4178V82.4917C26.5832 83.0463 26.363 83.578 25.9707 83.97C25.5788 84.3619 25.0468 84.5823 24.4923 84.5823C24.1288 84.5749 23.7752 84.7028 23.5007 84.9413C23.2259 85.1798 23.0495 85.5115 23.0057 85.8727C22.9881 86.0688 23.0116 86.2664 23.0745 86.4528C23.1375 86.6395 23.2386 86.8108 23.3716 86.9561C23.5044 87.1013 23.666 87.2174 23.8464 87.2969C24.0265 87.3763 24.2212 87.4174 24.418 87.4174H24.4916C25.0461 87.4174 25.5778 87.6376 25.97 88.0295C26.362 88.4217 26.5822 88.9535 26.5822 89.5078C26.5751 89.8715 26.7029 90.225 26.9415 90.4997C27.1801 90.7744 27.5121 90.9507 27.8731 90.9943C28.0694 91.0119 28.2669 90.9886 28.4534 90.9256C28.64 90.8627 28.8115 90.7615 28.9567 90.6286C29.1021 90.4958 29.218 90.3341 29.2973 90.1539C29.3769 89.9739 29.4178 89.779 29.4178 89.5822V89.5088C29.4178 88.9542 29.638 88.4225 30.03 88.0305C30.4222 87.6383 30.9539 87.4182 31.5084 87.4182H31.5823C31.7793 87.4182 31.974 87.377 32.1541 87.2977C32.3343 87.2181 32.4958 87.1021 32.6286 86.9568C32.7614 86.8115 32.8625 86.6402 32.9255 86.4536C32.9884 86.2671 33.0119 86.0695 32.9943 85.8734C32.9505 85.5127 32.7746 85.1808 32.5 84.9423C32.2258 84.704 31.8727 84.5759 31.5092 84.5828Z" fill="white"/>
<path d="M86.2547 40.7915C85.9774 40.7915 85.7113 40.6814 85.5153 40.4853C85.3193 40.2892 85.2091 40.0235 85.2091 39.746C85.2128 39.5643 85.1488 39.3876 85.0297 39.2502C84.9105 39.1129 84.7445 39.0246 84.5641 39.0028C84.466 38.9941 84.3671 39.0058 84.274 39.0372C84.1805 39.0687 84.0948 39.1193 84.0222 39.1857C83.9496 39.2522 83.8916 39.333 83.852 39.423C83.8121 39.513 83.7918 39.6104 83.7918 39.7088V39.7458C83.7918 40.023 83.6815 40.289 83.4855 40.4851C83.2896 40.6809 83.0235 40.7913 82.7462 40.7913C82.5643 40.7875 82.3877 40.8515 82.2504 40.9705C82.1131 41.0898 82.0249 41.2556 82.0029 41.4361C81.994 41.5343 82.0059 41.6332 82.0373 41.7264C82.0688 41.8196 82.1193 41.9054 82.1857 41.978C82.2521 42.0507 82.3329 42.1087 82.4231 42.1486C82.5133 42.1883 82.6107 42.2089 82.709 42.2089H82.7457C83.023 42.2089 83.2888 42.3189 83.4851 42.5148C83.681 42.7109 83.7913 42.9767 83.7913 43.2538C83.7876 43.4358 83.8515 43.6126 83.9707 43.7499C84.0899 43.8873 84.2559 43.9753 84.4365 43.9971C84.5344 44.006 84.6332 43.9944 84.7266 43.9629C84.8198 43.9314 84.9055 43.8808 84.9781 43.8144C85.051 43.7479 85.1089 43.6671 85.1486 43.5769C85.1882 43.4869 85.2088 43.3894 85.2086 43.291V43.2543C85.2088 42.9772 85.3191 42.7111 85.515 42.5153C85.711 42.3192 85.9769 42.2091 86.2542 42.2091H86.2911C86.3894 42.2091 86.4868 42.1888 86.577 42.1489C86.6669 42.1092 86.748 42.0512 86.8144 41.9785C86.8808 41.9059 86.9313 41.8201 86.9628 41.7269C86.9943 41.6334 87.0059 41.5348 86.9972 41.4366C86.9752 41.2564 86.8872 41.0905 86.7499 40.9712C86.6127 40.8522 86.4363 40.788 86.2547 40.7915Z" fill="white"/>
<path d="M50.5525 127.075C50.3862 127.075 50.2267 127.009 50.1091 126.891C49.9913 126.773 49.9253 126.614 49.9253 126.447C49.9274 126.338 49.8888 126.232 49.8174 126.15C49.746 126.068 49.6464 126.015 49.5382 126.002C49.4793 125.996 49.4201 126.003 49.364 126.022C49.308 126.041 49.2566 126.072 49.2131 126.111C49.1696 126.151 49.1346 126.2 49.1107 126.254C49.0869 126.308 49.0747 126.366 49.0744 126.425V126.447C49.0747 126.53 49.0585 126.611 49.027 126.687C48.9954 126.764 48.9493 126.833 48.8911 126.891C48.8328 126.949 48.7637 126.995 48.6875 127.027C48.6114 127.059 48.5298 127.075 48.4475 127.075C48.3385 127.072 48.2324 127.111 48.15 127.182C48.0676 127.254 48.0147 127.354 48.0017 127.462C47.9965 127.521 48.0035 127.58 48.0223 127.636C48.0413 127.692 48.0715 127.743 48.1114 127.787C48.1513 127.831 48.1998 127.865 48.2538 127.889C48.308 127.913 48.3664 127.925 48.4253 127.925H48.4475C48.5298 127.925 48.6114 127.941 48.6875 127.973C48.7637 128.005 48.8328 128.051 48.8911 128.109C48.9493 128.167 48.9954 128.236 49.027 128.313C49.0585 128.389 49.0747 128.47 49.0744 128.553C49.0723 128.662 49.1109 128.768 49.1826 128.85C49.254 128.932 49.3536 128.985 49.4621 128.998C49.521 129.004 49.5802 128.996 49.6359 128.978C49.692 128.959 49.7434 128.928 49.7869 128.889C49.8304 128.849 49.8654 128.8 49.8891 128.746C49.9128 128.692 49.9253 128.634 49.9253 128.575V128.553C49.9253 128.47 49.9415 128.389 49.973 128.313C50.0046 128.236 50.0507 128.167 50.1091 128.109C50.1672 128.051 50.2363 128.005 50.3124 127.973C50.3886 127.941 50.4702 127.925 50.5525 127.925H50.5747C50.6339 127.925 50.6923 127.913 50.7462 127.889C50.8002 127.865 50.8487 127.83 50.8886 127.787C50.9285 127.743 50.9587 127.692 50.9777 127.636C50.9965 127.58 51.0035 127.521 50.9983 127.462C50.9853 127.354 50.9324 127.254 50.85 127.182C50.7676 127.111 50.6618 127.073 50.5525 127.075Z" fill="white"/>
<path d="M138.702 102.716C138.591 102.716 138.484 102.673 138.406 102.594C138.327 102.516 138.283 102.409 138.283 102.298C138.284 102.226 138.259 102.155 138.211 102.1C138.163 102.045 138.097 102.01 138.025 102.001C137.986 101.998 137.946 102.002 137.909 102.015C137.872 102.028 137.838 102.048 137.809 102.075C137.78 102.101 137.757 102.134 137.741 102.169C137.725 102.205 137.717 102.244 137.717 102.284V102.299C137.717 102.41 137.673 102.516 137.594 102.594C137.516 102.673 137.409 102.717 137.298 102.717C137.226 102.716 137.155 102.741 137.1 102.789C137.045 102.837 137.01 102.903 137.001 102.975C136.998 103.015 137.003 103.054 137.015 103.091C137.028 103.128 137.048 103.162 137.075 103.191C137.101 103.221 137.134 103.244 137.17 103.259C137.205 103.275 137.244 103.283 137.284 103.283H137.298C137.409 103.283 137.516 103.327 137.594 103.406C137.673 103.484 137.717 103.591 137.717 103.702C137.715 103.774 137.741 103.845 137.789 103.9C137.836 103.955 137.903 103.99 137.975 103.999C138.014 104.002 138.053 103.997 138.091 103.985C138.128 103.972 138.162 103.952 138.191 103.925C138.22 103.899 138.243 103.866 138.259 103.83C138.275 103.794 138.283 103.756 138.283 103.716V103.702C138.283 103.591 138.327 103.485 138.406 103.406C138.485 103.328 138.591 103.284 138.702 103.285H138.716C138.756 103.285 138.795 103.276 138.83 103.261C138.866 103.245 138.899 103.222 138.925 103.193C138.952 103.164 138.972 103.129 138.985 103.092C138.997 103.055 139.002 103.016 138.999 102.976C138.99 102.904 138.955 102.837 138.901 102.789C138.846 102.741 138.775 102.715 138.702 102.716Z" fill="white"/>
<path d="M139.1 66.149C138.936 66.149 138.774 66.1168 138.622 66.054C138.47 65.9912 138.332 65.8992 138.216 65.7831C138.1 65.6669 138.008 65.5292 137.945 65.3773C137.883 65.2258 137.85 65.0631 137.85 64.8991C137.855 64.6822 137.78 64.4717 137.639 64.3066C137.498 64.1417 137.302 64.0342 137.087 64.0045C136.969 63.9923 136.849 64.005 136.736 64.0421C136.623 64.0789 136.519 64.1393 136.43 64.2191C136.342 64.2987 136.271 64.3961 136.222 64.5049C136.174 64.614 136.149 64.7318 136.149 64.8509V64.8996C136.149 65.2309 136.017 65.5489 135.783 65.7833C135.549 66.0177 135.231 66.1496 134.899 66.1496C134.683 66.145 134.472 66.2199 134.307 66.3607C134.142 66.5012 134.034 66.6977 134.004 66.9123C133.992 67.0309 134.005 67.1505 134.042 67.2636C134.079 67.377 134.139 67.4813 134.219 67.5695C134.299 67.658 134.396 67.7287 134.505 67.7771C134.614 67.8256 134.732 67.8505 134.851 67.8505H134.899C135.231 67.8507 135.549 67.9825 135.783 68.2169C136.017 68.4513 136.149 68.7691 136.149 69.1007C136.144 69.3175 136.219 69.5283 136.36 69.6932C136.501 69.8583 136.697 69.9657 136.912 69.9955C137.03 70.0077 137.15 69.995 137.263 69.9582C137.376 69.9211 137.481 69.8607 137.569 69.7812C137.658 69.7013 137.728 69.6039 137.777 69.495C137.825 69.3862 137.85 69.2685 137.85 69.1494V69.1042C137.85 68.7715 137.982 68.4524 138.217 68.2172C138.453 67.982 138.772 67.8496 139.104 67.8496H139.149C139.268 67.8496 139.386 67.8247 139.495 67.7763C139.604 67.7278 139.701 67.6572 139.781 67.5687C139.861 67.4802 139.921 67.376 139.958 67.2628C139.995 67.1497 140.008 67.03 139.996 66.9115C139.966 66.6969 139.858 66.5003 139.693 66.3599C139.528 66.2194 139.317 66.1444 139.1 66.149Z" fill="white"/>
<path d="M142.951 107.508C142.564 107.508 142.193 107.354 141.92 107.08C141.647 106.806 141.493 106.435 141.493 106.048C141.499 105.796 141.411 105.55 141.247 105.358C141.083 105.165 140.854 105.04 140.603 105.005C140.465 104.991 140.326 105.006 140.193 105.049C140.061 105.092 139.94 105.162 139.837 105.255C139.734 105.348 139.651 105.462 139.595 105.589C139.538 105.716 139.509 105.853 139.509 105.992V106.048C139.509 106.24 139.471 106.43 139.398 106.607C139.325 106.784 139.217 106.945 139.081 107.081C138.946 107.216 138.785 107.324 138.607 107.397C138.43 107.47 138.241 107.508 138.049 107.508C137.796 107.503 137.55 107.591 137.358 107.754C137.165 107.918 137.04 108.147 137.005 108.397C136.991 108.536 137.006 108.675 137.049 108.807C137.092 108.939 137.162 109.061 137.255 109.164C137.348 109.267 137.462 109.349 137.589 109.406C137.716 109.462 137.853 109.492 137.992 109.492H138.049C138.436 109.492 138.807 109.645 139.081 109.919C139.355 110.193 139.509 110.564 139.509 110.951C139.504 111.204 139.591 111.45 139.755 111.642C139.919 111.835 140.148 111.96 140.399 111.995C140.537 112.009 140.676 111.994 140.808 111.951C140.941 111.908 141.062 111.838 141.165 111.745C141.269 111.652 141.351 111.538 141.407 111.411C141.464 111.284 141.493 111.147 141.493 111.008V110.957C141.493 110.569 141.647 110.197 141.922 109.922C142.196 109.648 142.568 109.494 142.956 109.494H143.008C143.147 109.494 143.284 109.465 143.411 109.408C143.538 109.352 143.652 109.269 143.745 109.166C143.838 109.063 143.908 108.941 143.951 108.809C143.994 108.677 144.009 108.538 143.995 108.4C143.96 108.149 143.835 107.92 143.643 107.755C143.45 107.591 143.204 107.503 142.951 107.508Z" fill="white"/>
<path d="M255.491 116.583C256.045 116.583 256.577 116.362 256.969 115.97C257.361 115.578 257.582 115.047 257.582 114.492C257.574 114.128 257.702 113.775 257.941 113.501C258.179 113.226 258.511 113.05 258.872 113.006C259.068 112.988 259.266 113.011 259.452 113.074C259.639 113.137 259.81 113.238 259.956 113.371C260.101 113.504 260.217 113.666 260.296 113.846C260.376 114.026 260.417 114.221 260.417 114.418V114.492C260.417 115.046 260.637 115.578 261.029 115.97C261.421 116.362 261.953 116.582 262.508 116.582C262.871 116.575 263.225 116.703 263.499 116.941C263.774 117.18 263.95 117.511 263.994 117.873C264.012 118.069 263.988 118.266 263.925 118.453C263.863 118.639 263.761 118.811 263.628 118.956C263.496 119.101 263.334 119.217 263.154 119.297C262.974 119.376 262.779 119.417 262.582 119.417H262.508C261.954 119.417 261.422 119.638 261.03 120.03C260.638 120.422 260.418 120.953 260.418 121.508C260.425 121.872 260.297 122.225 260.058 122.5C259.82 122.774 259.488 122.951 259.127 122.994C258.931 123.012 258.733 122.989 258.547 122.926C258.36 122.863 258.189 122.762 258.043 122.629C257.898 122.496 257.782 122.334 257.703 122.154C257.623 121.974 257.582 121.779 257.582 121.582V121.509C257.582 120.954 257.362 120.422 256.97 120.031C256.578 119.638 256.046 119.418 255.492 119.418H255.418C255.221 119.418 255.026 119.377 254.846 119.298C254.666 119.218 254.504 119.102 254.371 118.957C254.239 118.812 254.137 118.64 254.075 118.454C254.012 118.267 253.988 118.07 254.006 117.873C254.05 117.513 254.225 117.181 254.5 116.942C254.774 116.704 255.127 116.576 255.491 116.583Z" fill="white"/>
<path d="M280.745 97.7915C281.023 97.7915 281.289 97.6814 281.485 97.4853C281.681 97.2892 281.791 97.0235 281.791 96.746C281.787 96.5643 281.851 96.3876 281.97 96.2502C282.09 96.1129 282.256 96.0246 282.436 96.0028C282.534 95.9941 282.633 96.0058 282.726 96.0372C282.819 96.0687 282.905 96.1193 282.978 96.1857C283.05 96.2522 283.108 96.333 283.148 96.423C283.188 96.513 283.208 96.6104 283.208 96.7088V96.7458C283.208 97.023 283.318 97.289 283.514 97.4851C283.71 97.6809 283.977 97.7913 284.254 97.7913C284.436 97.7875 284.612 97.8515 284.75 97.9705C284.887 98.0898 284.975 98.2556 284.997 98.4361C285.006 98.5343 284.994 98.6332 284.963 98.7264C284.931 98.8196 284.881 98.9054 284.814 98.978C284.748 99.0507 284.667 99.1087 284.577 99.1486C284.487 99.1883 284.389 99.2089 284.291 99.2089H284.254C283.977 99.2089 283.711 99.3189 283.515 99.5148C283.319 99.7109 283.209 99.9767 283.209 100.254C283.212 100.436 283.148 100.613 283.029 100.75C282.91 100.887 282.744 100.975 282.564 100.997C282.466 101.006 282.367 100.994 282.273 100.963C282.18 100.931 282.094 100.881 282.022 100.814C281.949 100.748 281.891 100.667 281.851 100.577C281.812 100.487 281.791 100.389 281.791 100.291V100.254C281.791 99.9772 281.681 99.7111 281.485 99.5153C281.289 99.3192 281.023 99.2091 280.746 99.2091H280.709C280.611 99.2091 280.513 99.1888 280.423 99.1489C280.333 99.1092 280.252 99.0512 280.186 98.9785C280.119 98.9059 280.069 98.8201 280.037 98.7269C280.006 98.6334 279.994 98.5348 280.003 98.4366C280.025 98.2564 280.113 98.0905 280.25 97.9712C280.387 97.8522 280.564 97.788 280.745 97.7915Z" fill="white"/>
<path d="M204.447 83.0747C204.614 83.0747 204.773 83.0087 204.891 82.8911C205.009 82.7735 205.075 82.6138 205.075 82.4474C205.073 82.3384 205.111 82.2325 205.183 82.1501C205.254 82.0677 205.354 82.015 205.462 82.0017C205.521 81.9965 205.58 82.0035 205.636 82.0223C205.692 82.0413 205.743 82.0716 205.787 82.1115C205.83 82.1514 205.865 82.1999 205.889 82.2539C205.913 82.3079 205.925 82.3663 205.926 82.4253V82.4474C205.925 82.5298 205.941 82.6112 205.973 82.6874C206.005 82.7635 206.051 82.8327 206.109 82.8911C206.167 82.9493 206.236 82.9954 206.312 83.027C206.389 83.0585 206.47 83.0747 206.553 83.0747C206.662 83.0724 206.768 83.1107 206.85 83.1824C206.932 83.2539 206.985 83.3535 206.998 83.4618C207.004 83.5207 206.997 83.5799 206.978 83.636C206.959 83.6918 206.928 83.7432 206.889 83.787C206.849 83.8306 206.8 83.8653 206.746 83.8893C206.692 83.913 206.634 83.9253 206.575 83.9253H206.553C206.47 83.9253 206.389 83.9414 206.312 83.973C206.236 84.0046 206.167 84.0507 206.109 84.1092C206.051 84.1673 206.005 84.2364 205.973 84.3126C205.941 84.3888 205.925 84.4704 205.926 84.5526C205.928 84.6619 205.889 84.7678 205.817 84.8502C205.746 84.9323 205.646 84.9853 205.538 84.9983C205.479 85.0035 205.42 84.9965 205.364 84.9777C205.308 84.9587 205.257 84.9284 205.213 84.8885C205.17 84.8486 205.135 84.8004 205.111 84.7464C205.087 84.6921 205.075 84.6339 205.075 84.5747V84.5526C205.075 84.4701 205.059 84.3888 205.027 84.3126C204.995 84.2364 204.949 84.1673 204.891 84.1092C204.833 84.0507 204.764 84.0046 204.688 83.973C204.611 83.9414 204.53 83.9253 204.447 83.9253H204.425C204.366 83.9253 204.308 83.913 204.254 83.889C204.2 83.8653 204.151 83.8303 204.111 83.7868C204.072 83.7432 204.041 83.6918 204.022 83.6358C204.003 83.5799 203.996 83.5207 204.002 83.4618C204.015 83.3535 204.068 83.2542 204.15 83.1824C204.232 83.111 204.338 83.0726 204.447 83.0747Z" fill="white"/>
<path d="M172.298 94.7165C172.409 94.7165 172.516 94.6725 172.594 94.5942C172.673 94.5155 172.717 94.4092 172.717 94.2982C172.716 94.2256 172.741 94.1549 172.789 94.1001C172.837 94.045 172.903 94.0099 172.975 94.0011C173.014 93.9976 173.054 94.0025 173.091 94.0152C173.128 94.0279 173.162 94.048 173.191 94.0746C173.22 94.1012 173.243 94.1336 173.259 94.1694C173.275 94.2055 173.283 94.2443 173.283 94.2836V94.2987C173.283 94.4097 173.327 94.516 173.406 94.5944C173.484 94.6728 173.591 94.7169 173.702 94.7169C173.774 94.7155 173.845 94.7412 173.9 94.7888C173.955 94.8367 173.99 94.9031 173.999 94.9754C174.002 95.0145 173.997 95.0538 173.985 95.091C173.972 95.1283 173.952 95.1625 173.925 95.1914C173.899 95.2205 173.866 95.2436 173.83 95.2594C173.795 95.2751 173.756 95.2834 173.716 95.2834H173.702C173.591 95.2834 173.484 95.3273 173.406 95.406C173.327 95.4843 173.283 95.5907 173.283 95.7017C173.285 95.7743 173.259 95.845 173.211 95.9001C173.164 95.9549 173.097 95.9902 173.025 95.999C172.986 96.0023 172.947 95.9974 172.909 95.9847C172.872 95.9722 172.838 95.9519 172.809 95.9253C172.78 95.8987 172.757 95.8663 172.741 95.8305C172.725 95.7944 172.717 95.7556 172.717 95.7162V95.7017C172.717 95.5907 172.673 95.4846 172.594 95.4064C172.515 95.3283 172.409 95.2843 172.298 95.2846H172.284C172.244 95.2846 172.205 95.2762 172.17 95.2605C172.134 95.2448 172.101 95.2217 172.075 95.1925C172.048 95.1636 172.028 95.1294 172.015 95.0922C172.003 95.055 171.998 95.0157 172.001 94.9764C172.01 94.904 172.045 94.8372 172.099 94.7891C172.154 94.741 172.225 94.7151 172.298 94.7165Z" fill="white"/>
<path d="M187.9 66.149C188.064 66.149 188.226 66.1168 188.378 66.054C188.53 65.9912 188.668 65.8992 188.784 65.7831C188.9 65.6669 188.992 65.5292 189.055 65.3773C189.117 65.2258 189.15 65.0631 189.15 64.8991C189.145 64.6822 189.22 64.4717 189.361 64.3066C189.502 64.1417 189.698 64.0342 189.913 64.0045C190.031 63.9923 190.151 64.005 190.264 64.0421C190.377 64.0789 190.481 64.1393 190.57 64.2191C190.658 64.2987 190.729 64.3961 190.778 64.5049C190.826 64.614 190.851 64.7318 190.851 64.8509V64.8996C190.851 65.2309 190.983 65.5489 191.217 65.7833C191.451 66.0177 191.769 66.1496 192.101 66.1496C192.317 66.145 192.528 66.2199 192.693 66.3607C192.858 66.5012 192.966 66.6977 192.996 66.9123C193.008 67.0309 192.995 67.1505 192.958 67.2636C192.921 67.377 192.861 67.4813 192.781 67.5695C192.701 67.658 192.604 67.7287 192.495 67.7771C192.386 67.8256 192.268 67.8505 192.149 67.8505H192.101C191.769 67.8507 191.451 67.9825 191.217 68.2169C190.983 68.4513 190.851 68.7691 190.851 69.1007C190.856 69.3175 190.781 69.5283 190.64 69.6932C190.499 69.8583 190.303 69.9657 190.088 69.9955C189.97 70.0077 189.85 69.995 189.737 69.9582C189.624 69.9211 189.519 69.8607 189.431 69.7812C189.342 69.7013 189.272 69.6039 189.223 69.495C189.175 69.3862 189.15 69.2685 189.15 69.1494V69.1042C189.15 68.7715 189.018 68.4524 188.783 68.2172C188.547 67.982 188.228 67.8496 187.896 67.8496H187.851C187.732 67.8496 187.614 67.8247 187.505 67.7763C187.396 67.7278 187.299 67.6572 187.219 67.5687C187.139 67.4802 187.079 67.376 187.042 67.2628C187.005 67.1497 186.992 67.03 187.004 66.9115C187.034 66.6969 187.142 66.5003 187.307 66.3599C187.472 66.2194 187.683 66.1444 187.9 66.149Z" fill="white"/>
<path d="M248.049 83.5082C248.436 83.5077 248.807 83.3536 249.08 83.0801C249.353 82.8062 249.507 82.4351 249.507 82.0484C249.501 81.7958 249.589 81.5498 249.753 81.3575C249.917 81.165 250.146 81.0396 250.397 81.0053C250.535 80.991 250.674 81.0056 250.807 81.0486C250.939 81.0917 251.06 81.162 251.163 81.255C251.266 81.348 251.349 81.4617 251.405 81.5886C251.462 81.7156 251.491 81.8529 251.491 81.9918V82.0484C251.491 82.2402 251.529 82.4301 251.602 82.607C251.675 82.7842 251.783 82.9451 251.919 83.0808C252.054 83.2163 252.215 83.3239 252.393 83.3972C252.57 83.4705 252.759 83.5082 252.951 83.5082C253.204 83.5029 253.45 83.5905 253.642 83.7544C253.835 83.9183 253.96 84.1473 253.995 84.3975C254.009 84.5356 253.994 84.6753 253.951 84.8073C253.908 84.9393 253.838 85.0607 253.745 85.164C253.652 85.2671 253.538 85.3494 253.411 85.406C253.284 85.4623 253.147 85.4916 253.008 85.4916H252.951C252.564 85.4916 252.193 85.6453 251.919 85.9192C251.645 86.193 251.491 86.5644 251.491 86.9514C251.496 87.2042 251.409 87.4502 251.245 87.6425C251.081 87.8348 250.852 87.9602 250.601 87.9947C250.463 88.009 250.324 87.9942 250.192 87.9511C250.059 87.9081 249.938 87.8377 249.835 87.7448C249.731 87.6518 249.649 87.5381 249.593 87.4111C249.536 87.2842 249.507 87.1469 249.507 87.0082V86.9567C249.507 86.5689 249.353 86.1968 249.078 85.9224C248.804 85.648 248.432 85.4939 248.044 85.4937H247.992C247.853 85.4937 247.716 85.4647 247.589 85.4081C247.462 85.3518 247.348 85.2692 247.255 85.1662C247.162 85.0631 247.092 84.9415 247.049 84.8095C247.006 84.6775 246.991 84.538 247.005 84.3999C247.04 84.1491 247.165 83.9197 247.357 83.7552C247.55 83.5908 247.796 83.5029 248.049 83.5082Z" fill="white"/>
<path d="M231.588 187.056H194.544V261.36H231.588V187.056Z" fill="#FFC299"/>
<path d="M231.588 187.056H194.544V261.36H231.588V187.056Z" fill="#D7D7D7"/>
<path opacity="0.34" d="M199.44 187.056H194.544V261.36H199.44V187.056Z" fill="#333333"/>
<path d="M231.588 187.056H194.544V261.36H231.588V187.056Z" stroke="#170E10" stroke-width="2" stroke-miterlimit="10" stroke-linecap="round" stroke-linejoin="round"/>
<path d="M200.592 245.16H226.476H200.592Z" fill="white"/>
<path d="M200.592 245.16H226.476" stroke="white" stroke-width="2" stroke-miterlimit="10" stroke-linejoin="round"/>
<path d="M200.592 235.8H226.476H200.592Z" fill="white"/>
<path d="M200.592 235.8H226.476" stroke="white" stroke-width="2" stroke-miterlimit="10" stroke-linejoin="round"/>
<path d="M200.592 226.44H226.476H200.592Z" fill="white"/>
<path d="M200.592 226.44H226.476" stroke="white" stroke-width="2" stroke-miterlimit="10" stroke-linejoin="round"/>
<path d="M200.592 217.08H226.476H200.592Z" fill="white"/>
<path d="M200.592 217.08H226.476" stroke="white" stroke-width="2" stroke-miterlimit="10" stroke-linejoin="round"/>
<path d="M200.592 207.72H226.476H200.592Z" fill="white"/>
<path d="M200.592 207.72H226.476" stroke="white" stroke-width="2" stroke-miterlimit="10" stroke-linejoin="round"/>
<path d="M200.592 198.36H226.476H200.592Z" fill="white"/>
<path d="M200.592 198.36H226.476" stroke="white" stroke-width="2" stroke-miterlimit="10" stroke-linejoin="round"/>
<path d="M195.336 157.68H142.056V261.36H195.336V157.68Z" fill="#9DD7CE"/>
<path opacity="0.69" d="M146.88 157.68H142.056V261.36H146.88V157.68Z" fill="#333333"/>
<path d="M130.536 99.972H113.256V87.012C113.256 84.636 115.2 82.692 117.576 82.692H126.216C128.592 82.692 130.536 84.636 130.536 87.012V99.972Z" fill="#C0BFBF"/>
<path opacity="0.69" d="M122.148 82.692H117.54C115.164 82.692 113.22 84.636 113.22 87.012V99.972H117.828V87.012C117.828 84.636 119.772 82.692 122.148 82.692Z" fill="#333333"/>
<path d="M130.536 99.972H113.256V87.012C113.256 84.636 115.2 82.692 117.576 82.692H126.216C128.592 82.692 130.536 84.636 130.536 87.012V99.972Z" stroke="#170E10" stroke-width="2" stroke-miterlimit="10" stroke-linecap="round" stroke-linejoin="round"/>
<path d="M122.04 82.8V65.88" stroke="#170E10" stroke-width="2" stroke-miterlimit="10" stroke-linecap="round" stroke-linejoin="round"/>
<path d="M331.92 261.36H340.416" stroke="#170E10" stroke-width="2" stroke-miterlimit="10" stroke-linecap="round" stroke-linejoin="round"/>
<path d="M252.9 261.36H325.764" stroke="#170E10" stroke-width="2" stroke-miterlimit="10" stroke-linecap="round" stroke-linejoin="round"/>
<path d="M240.84 261.36H244.08" stroke="#170E10" stroke-width="2" stroke-miterlimit="10" stroke-linecap="round" stroke-linejoin="round"/>
<path d="M63.1799 261.36H235.62" stroke="#170E10" stroke-width="2" stroke-miterlimit="10" stroke-linecap="round" stroke-linejoin="round"/>
<path d="M54.6121 261.36H57.6361" stroke="#170E10" stroke-width="2" stroke-miterlimit="10" stroke-linecap="round" stroke-linejoin="round"/>
<path d="M23.5081 261.36H48.6001" stroke="#170E10" stroke-width="2" stroke-miterlimit="10" stroke-linecap="round" stroke-linejoin="round"/>
<path d="M142.056 124.236H101.736V261.36H142.056V124.236Z" fill="#C0BFBF"/>
<path opacity="0.69" d="M105.84 124.236H101.736V261.36H105.84V124.236Z" fill="#333333"/>
<path d="M142.056 124.236H101.736V261.36H142.056V124.236Z" stroke="#170E10" stroke-width="2" stroke-miterlimit="10" stroke-linecap="round" stroke-linejoin="round"/>
<path d="M108.72 231.48H135" stroke="white" stroke-width="2" stroke-miterlimit="10" stroke-linejoin="round"/>
<path d="M108.72 235.8H135" stroke="white" stroke-width="2" stroke-miterlimit="10" stroke-linejoin="round"/>
<path d="M108.72 219.24H135" stroke="white" stroke-width="2" stroke-miterlimit="10" stroke-linejoin="round"/>
<path d="M108.72 223.56H135" stroke="white" stroke-width="2" stroke-miterlimit="10" stroke-linejoin="round"/>
<path d="M108.72 207H135" stroke="white" stroke-width="2" stroke-miterlimit="10" stroke-linejoin="round"/>
<path d="M108.72 211.32H135" stroke="white" stroke-width="2" stroke-miterlimit="10" stroke-linejoin="round"/>
<path d="M108.72 194.76H135" stroke="white" stroke-width="2" stroke-miterlimit="10" stroke-linejoin="round"/>
<path d="M108.72 199.08H135" stroke="white" stroke-width="2" stroke-miterlimit="10" stroke-linejoin="round"/>
<path d="M108.72 182.52H135" stroke="white" stroke-width="2" stroke-miterlimit="10" stroke-linejoin="round"/>
<path d="M108.72 186.84H135" stroke="white" stroke-width="2" stroke-miterlimit="10" stroke-linejoin="round"/>
<path d="M108.72 170.28H135" stroke="white" stroke-width="2" stroke-miterlimit="10" stroke-linejoin="round"/>
<path d="M108.72 174.6H135" stroke="white" stroke-width="2" stroke-miterlimit="10" stroke-linejoin="round"/>
<path d="M108.72 158.04H135" stroke="white" stroke-width="2" stroke-miterlimit="10" stroke-linejoin="round"/>
<path d="M108.72 162.36H135" stroke="white" stroke-width="2" stroke-miterlimit="10" stroke-linejoin="round"/>
<path d="M108.72 145.8H135" stroke="white" stroke-width="2" stroke-miterlimit="10" stroke-linejoin="round"/>
<path d="M108.72 150.12H135" stroke="white" stroke-width="2" stroke-miterlimit="10" stroke-linejoin="round"/>
<path d="M108.72 133.56H135" stroke="white" stroke-width="2" stroke-miterlimit="10" stroke-linejoin="round"/>
<path d="M108.72 137.88H135" stroke="white" stroke-width="2" stroke-miterlimit="10" stroke-linejoin="round"/>
<path d="M135.216 124.236H108.576V108.756C108.576 101.412 114.552 95.436 121.896 95.436C129.24 95.436 135.216 101.412 135.216 108.756V124.236Z" fill="#C0BFBF"/>
<path opacity="0.69" d="M124.236 95.652C123.48 95.508 122.688 95.436 121.896 95.436C114.552 95.436 108.576 101.412 108.576 108.756V124.236H113.256V108.756C113.256 102.204 117.972 96.768 124.236 95.652Z" fill="#333333"/>
<path d="M135.216 124.236H108.576V108.756C108.576 101.412 114.552 95.436 121.896 95.436C129.24 95.436 135.216 101.412 135.216 108.756V124.236Z" stroke="#170E10" stroke-width="2" stroke-miterlimit="10" stroke-linecap="round" stroke-linejoin="round"/>
<path d="M195.336 157.68H142.056V261.36H195.336V157.68Z" stroke="#170E10" stroke-width="2" stroke-miterlimit="10" stroke-linecap="round" stroke-linejoin="round"/>
<path d="M197.028 150.48H142.056V157.68H197.028V150.48Z" fill="#BD2B3E"/>
<path d="M197.28 150.48H142.056V157.68H197.28V150.48Z" stroke="#170E10" stroke-width="2" stroke-miterlimit="10" stroke-linecap="round" stroke-linejoin="round"/>
<path d="M130.536 242.82H113.256V261.36H130.536V242.82Z" fill="white"/>
<path opacity="0.34" d="M130.536 243.54H113.256V247.32H130.536V243.54Z" fill="#333333"/>
<path opacity="0.34" d="M117.252 247.32H113.256V261.36H117.252V247.32Z" fill="#333333"/>
<path d="M130.536 242.82H113.256V261.36H130.536V242.82Z" stroke="#170E10" stroke-width="2" stroke-miterlimit="10" stroke-linecap="round" stroke-linejoin="round"/>
<path d="M186.48 241.2V246.6" stroke="white" stroke-width="2" stroke-miterlimit="10" stroke-linejoin="round"/>
<path d="M179.28 241.2V246.6" stroke="#170E10" stroke-width="2" stroke-miterlimit="10" stroke-linejoin="round"/>
<path d="M172.08 241.2V246.6" stroke="#170E10" stroke-width="2" stroke-miterlimit="10" stroke-linejoin="round"/>
<path d="M164.88 241.2V246.6" stroke="#170E10" stroke-width="2" stroke-miterlimit="10" stroke-linejoin="round"/>
<path d="M157.68 241.2V246.6" stroke="#170E10" stroke-width="2" stroke-miterlimit="10" stroke-linejoin="round"/>
<path d="M150.48 241.2V246.6V241.2Z" fill="white"/>
<path d="M150.48 241.2V246.6" stroke="white" stroke-width="2" stroke-miterlimit="10" stroke-linejoin="round"/>
<path d="M186.48 226.8V232.2" stroke="white" stroke-width="2" stroke-miterlimit="10" stroke-linejoin="round"/>
<path d="M179.28 226.8V232.2V226.8Z" fill="white"/>
<path d="M179.28 226.8V232.2" stroke="white" stroke-width="2" stroke-miterlimit="10" stroke-linejoin="round"/>
<path d="M172.08 226.8V232.2V226.8Z" fill="white"/>
<path d="M172.08 226.8V232.2" stroke="white" stroke-width="2" stroke-miterlimit="10" stroke-linejoin="round"/>
<path d="M164.88 226.8V232.2V226.8Z" fill="white"/>
<path d="M164.88 226.8V232.2" stroke="white" stroke-width="2" stroke-miterlimit="10" stroke-linejoin="round"/>
<path d="M157.68 226.8V232.2V226.8Z" fill="white"/>
<path d="M157.68 226.8V232.2" stroke="white" stroke-width="2" stroke-miterlimit="10" stroke-linejoin="round"/>
<path d="M150.48 226.8V232.2V226.8Z" fill="white"/>
<path d="M150.48 226.8V232.2" stroke="white" stroke-width="2" stroke-miterlimit="10" stroke-linejoin="round"/>
<path d="M186.48 212.4V217.8" stroke="white" stroke-width="2" stroke-miterlimit="10" stroke-linejoin="round"/>
<path d="M179.28 212.4V217.8V212.4Z" fill="white"/>
<path d="M179.28 212.4V217.8" stroke="white" stroke-width="2" stroke-miterlimit="10" stroke-linejoin="round"/>
<path d="M172.08 212.4V217.8V212.4Z" fill="white"/>
<path d="M172.08 212.4V217.8" stroke="white" stroke-width="2" stroke-miterlimit="10" stroke-linejoin="round"/>
<path d="M164.88 212.4V217.8V212.4Z" fill="white"/>
<path d="M164.88 212.4V217.8" stroke="white" stroke-width="2" stroke-miterlimit="10" stroke-linejoin="round"/>
<path d="M157.68 212.4V217.8V212.4Z" fill="white"/>
<path d="M157.68 212.4V217.8" stroke="white" stroke-width="2" stroke-miterlimit="10" stroke-linejoin="round"/>
<path d="M150.48 212.4V217.8V212.4Z" fill="white"/>
<path d="M150.48 212.4V217.8" stroke="white" stroke-width="2" stroke-miterlimit="10" stroke-linejoin="round"/>
<path d="M186.48 198V203.4" stroke="white" stroke-width="2" stroke-miterlimit="10" stroke-linejoin="round"/>
<path d="M179.28 198V203.4V198Z" fill="white"/>
<path d="M179.28 198V203.4" stroke="white" stroke-width="2" stroke-miterlimit="10" stroke-linejoin="round"/>
<path d="M172.08 198V203.4V198Z" fill="white"/>
<path d="M172.08 198V203.4" stroke="white" stroke-width="2" stroke-miterlimit="10" stroke-linejoin="round"/>
<path d="M164.88 198V203.4V198Z" fill="white"/>
<path d="M164.88 198V203.4" stroke="white" stroke-width="2" stroke-miterlimit="10" stroke-linejoin="round"/>
<path d="M157.68 198V203.4V198Z" fill="white"/>
<path d="M157.68 198V203.4" stroke="white" stroke-width="2" stroke-miterlimit="10" stroke-linejoin="round"/>
<path d="M150.48 198V203.4V198Z" fill="white"/>
<path d="M150.48 198V203.4" stroke="white" stroke-width="2" stroke-miterlimit="10" stroke-linejoin="round"/>
<path d="M186.48 183.6V189" stroke="white" stroke-width="2" stroke-miterlimit="10" stroke-linejoin="round"/>
<path d="M179.28 183.6V189V183.6Z" fill="white"/>
<path d="M179.28 183.6V189" stroke="white" stroke-width="2" stroke-miterlimit="10" stroke-linejoin="round"/>
<path d="M172.08 183.6V189V183.6Z" fill="white"/>
<path d="M172.08 183.6V189" stroke="white" stroke-width="2" stroke-miterlimit="10" stroke-linejoin="round"/>
<path d="M164.88 183.6V189V183.6Z" fill="white"/>
<path d="M164.88 183.6V189" stroke="white" stroke-width="2" stroke-miterlimit="10" stroke-linejoin="round"/>
<path d="M157.68 183.6V189V183.6Z" fill="white"/>
<path d="M157.68 183.6V189" stroke="white" stroke-width="2" stroke-miterlimit="10" stroke-linejoin="round"/>
<path d="M150.48 183.6V189V183.6Z" fill="white"/>
<path d="M150.48 183.6V189" stroke="white" stroke-width="2" stroke-miterlimit="10" stroke-linejoin="round"/>
<path d="M186.48 169.2V174.6V169.2Z" fill="white"/>
<path d="M186.48 169.2V174.6" stroke="white" stroke-width="2" stroke-miterlimit="10" stroke-linejoin="round"/>
<path d="M179.28 169.2V174.6V169.2Z" fill="white"/>
<path d="M179.28 169.2V174.6" stroke="white" stroke-width="2" stroke-miterlimit="10" stroke-linejoin="round"/>
<path d="M172.08 169.2V174.6V169.2Z" fill="white"/>
<path d="M172.08 169.2V174.6" stroke="white" stroke-width="2" stroke-miterlimit="10" stroke-linejoin="round"/>
<path d="M164.88 169.2V174.6V169.2Z" fill="white"/>
<path d="M164.88 169.2V174.6" stroke="white" stroke-width="2" stroke-miterlimit="10" stroke-linejoin="round"/>
<path d="M157.68 169.2V174.6V169.2Z" fill="white"/>
<path d="M157.68 169.2V174.6" stroke="white" stroke-width="2" stroke-miterlimit="10" stroke-linejoin="round"/>
<path d="M150.48 169.2V174.6V169.2Z" fill="white"/>
<path d="M150.48 169.2V174.6" stroke="white" stroke-width="2" stroke-miterlimit="10" stroke-linejoin="round"/>
<path d="M179.64 240.588H157.5V261.36H179.64V240.588Z" fill="#FFC299"/>
<path opacity="0.69" d="M179.64 240.588H157.5V245.412H179.64V240.588Z" fill="#333333"/>
<path opacity="0.69" d="M161.82 245.448H157.5V261.36H161.82V245.448Z" fill="#333333"/>
<path d="M179.64 240.588H157.5V261.36H179.64V240.588Z" stroke="#170E10" stroke-width="2" stroke-miterlimit="10" stroke-linecap="round" stroke-linejoin="round"/>
<path d="M101.34 157.68H79.5239V261.36H101.34V157.68Z" fill="#BD2B3E"/>
<path opacity="0.53" d="M83.1599 157.68H79.5239V261.36H83.1599V157.68Z" fill="#333333"/>
<path d="M101.34 157.68H79.5239V261.36H101.34V157.68Z" stroke="#170E10" stroke-width="2" stroke-miterlimit="10" stroke-linecap="round" stroke-linejoin="round"/>
<path d="M85.6799 226.8V232.2V226.8Z" fill="white"/>
<path d="M85.6799 226.8V232.2" stroke="white" stroke-width="2" stroke-miterlimit="10" stroke-linejoin="round"/>
<path opacity="0.36" d="M85.6799 234V236.16" stroke="#FF99AA" stroke-width="2" stroke-miterlimit="10" stroke-linejoin="round"/>
<path d="M90.3599 226.8V232.2V226.8Z" fill="white"/>
<path d="M90.3599 226.8V232.2" stroke="white" stroke-width="2" stroke-miterlimit="10" stroke-linejoin="round"/>
<path opacity="0.36" d="M90.3599 234V236.16" stroke="#FF99AA" stroke-width="2" stroke-miterlimit="10" stroke-linejoin="round"/>
<path d="M95.04 226.8V232.2V226.8Z" fill="white"/>
<path d="M95.04 226.8V232.2" stroke="white" stroke-width="2" stroke-miterlimit="10" stroke-linejoin="round"/>
<path opacity="0.36" d="M95.04 234V236.16" stroke="#FF99AA" stroke-width="2" stroke-miterlimit="10" stroke-linejoin="round"/>
<path d="M85.6799 210.96V216.36V210.96Z" fill="white"/>
<path d="M85.6799 210.96V216.36" stroke="white" stroke-width="2" stroke-miterlimit="10" stroke-linejoin="round"/>
<path opacity="0.36" d="M85.6799 218.16V220.32" stroke="#FF99AA" stroke-width="2" stroke-miterlimit="10" stroke-linejoin="round"/>
<path d="M90.3599 210.96V216.36V210.96Z" fill="white"/>
<path d="M90.3599 210.96V216.36" stroke="white" stroke-width="2" stroke-miterlimit="10" stroke-linejoin="round"/>
<path opacity="0.36" d="M90.3599 218.16V220.32" stroke="#FF99AA" stroke-width="2" stroke-miterlimit="10" stroke-linejoin="round"/>
<path d="M95.04 210.96V216.36V210.96Z" fill="white"/>
<path d="M95.04 210.96V216.36" stroke="white" stroke-width="2" stroke-miterlimit="10" stroke-linejoin="round"/>
<path opacity="0.36" d="M95.04 218.16V220.32" stroke="#FF99AA" stroke-width="2" stroke-miterlimit="10" stroke-linejoin="round"/>
<path d="M85.6799 195.12V200.52V195.12Z" fill="white"/>
<path d="M85.6799 195.12V200.52" stroke="white" stroke-width="2" stroke-miterlimit="10" stroke-linejoin="round"/>
<path opacity="0.36" d="M85.6799 202.32V204.48" stroke="#FF99AA" stroke-width="2" stroke-miterlimit="10" stroke-linejoin="round"/>
<path d="M90.3599 195.12V200.52V195.12Z" fill="white"/>
<path d="M90.3599 195.12V200.52" stroke="white" stroke-width="2" stroke-miterlimit="10" stroke-linejoin="round"/>
<path opacity="0.36" d="M90.3599 202.32V204.48" stroke="#FF99AA" stroke-width="2" stroke-miterlimit="10" stroke-linejoin="round"/>
<path d="M95.04 195.12V200.52V195.12Z" fill="white"/>
<path d="M95.04 195.12V200.52" stroke="white" stroke-width="2" stroke-miterlimit="10" stroke-linejoin="round"/>
<path opacity="0.36" d="M95.04 202.32V204.48" stroke="#FF99AA" stroke-width="2" stroke-miterlimit="10" stroke-linejoin="round"/>
<path d="M85.6799 179.28V184.68V179.28Z" fill="white"/>
<path d="M85.6799 179.28V184.68" stroke="white" stroke-width="2" stroke-miterlimit="10" stroke-linejoin="round"/>
<path opacity="0.36" d="M85.6799 186.48V188.64" stroke="#FF99AA" stroke-width="2" stroke-miterlimit="10" stroke-linejoin="round"/>
<path d="M90.3599 179.28V184.68V179.28Z" fill="white"/>
<path d="M90.3599 179.28V184.68" stroke="white" stroke-width="2" stroke-miterlimit="10" stroke-linejoin="round"/>
<path opacity="0.36" d="M90.3599 186.48V188.64" stroke="#FF99AA" stroke-width="2" stroke-miterlimit="10" stroke-linejoin="round"/>
<path d="M95.04 179.28V184.68V179.28Z" fill="white"/>
<path d="M95.04 179.28V184.68" stroke="white" stroke-width="2" stroke-miterlimit="10" stroke-linejoin="round"/>
<path opacity="0.36" d="M95.04 186.48V188.64" stroke="#FF99AA" stroke-width="2" stroke-miterlimit="10" stroke-linejoin="round"/>
<path d="M85.6799 163.44V168.84V163.44Z" fill="white"/>
<path d="M85.6799 163.44V168.84" stroke="white" stroke-width="2" stroke-miterlimit="10" stroke-linejoin="round"/>
<path opacity="0.36" d="M85.6799 170.64V172.8" stroke="#FF99AA" stroke-width="2" stroke-miterlimit="10" stroke-linejoin="round"/>
<path d="M90.3599 163.44V168.84V163.44Z" fill="white"/>
<path d="M90.3599 163.44V168.84" stroke="white" stroke-width="2" stroke-miterlimit="10" stroke-linejoin="round"/>
<path opacity="0.36" d="M90.3599 170.64V172.8" stroke="#FF99AA" stroke-width="2" stroke-miterlimit="10" stroke-linejoin="round"/>
<path d="M95.04 163.44V168.84V163.44Z" fill="white"/>
<path d="M95.04 163.44V168.84" stroke="white" stroke-width="2" stroke-miterlimit="10" stroke-linejoin="round"/>
<path opacity="0.36" d="M95.04 170.64V172.8" stroke="#FF99AA" stroke-width="2" stroke-miterlimit="10" stroke-linejoin="round"/>
<path d="M94.3201 244.08H87.1201V261.36H94.3201V244.08Z" fill="white"/>
<path d="M94.3201 244.08H87.1201V261.36H94.3201V244.08Z" stroke="#170E10" stroke-width="2" stroke-miterlimit="10" stroke-linecap="round" stroke-linejoin="round"/>
<path d="M189 133.56V149.652" stroke="#170E10" stroke-width="2" stroke-miterlimit="10" stroke-linecap="round" stroke-linejoin="round"/>
<path d="M185.508 136.908H192.708" stroke="#170E10" stroke-width="2" stroke-miterlimit="10" stroke-linecap="round" stroke-linejoin="round"/>
<path d="M183.168 141.588H195.336" stroke="#170E10" stroke-width="2" stroke-miterlimit="10" stroke-linecap="round" stroke-linejoin="round"/>
<path d="M292.68 261.36V197.64" stroke="#170E10" stroke-width="2" stroke-miterlimit="10" stroke-linecap="round" stroke-linejoin="round"/>
<path d="M279 201.312V197.64" stroke="#170E10" stroke-width="2" stroke-miterlimit="10" stroke-linecap="round" stroke-linejoin="round"/>
<path d="M279 197.64C279 193.86 282.06 190.8 285.84 190.8C289.62 190.8 292.68 193.86 292.68 197.64" stroke="#170E10" stroke-width="2" stroke-miterlimit="10" stroke-linecap="round" stroke-linejoin="round"/>
<path d="M285.3 207.828H272.7L279 200.52L285.3 207.828Z" fill="white" stroke="#170E10" stroke-width="2" stroke-miterlimit="10" stroke-linecap="round" stroke-linejoin="round"/>
<path d="M71.1001 261.36V198.36" stroke="#170E10" stroke-width="2" stroke-miterlimit="10" stroke-linecap="round" stroke-linejoin="round"/>
<path d="M57.4199 201.564V198.36" stroke="#170E10" stroke-width="2" stroke-miterlimit="10" stroke-linecap="round" stroke-linejoin="round"/>
<path d="M57.4199 198.36C57.4199 194.58 60.4799 191.52 64.2599 191.52C68.0399 191.52 71.0999 194.58 71.0999 198.36" stroke="#170E10" stroke-width="2" stroke-miterlimit="10" stroke-linecap="round" stroke-linejoin="round"/>
<path d="M63.7201 208.548H51.1201L57.4201 201.24L63.7201 208.548Z" fill="white"/>
<path d="M63.7201 208.548H51.1201L57.4201 201.24L63.7201 208.548Z" stroke="#170E10" stroke-width="2" stroke-miterlimit="10" stroke-linecap="round" stroke-linejoin="round"/>
<path d="M38.2681 248.652C46.4199 248.652 53.0281 239.481 53.0281 228.168C53.0281 216.855 46.4199 207.684 38.2681 207.684C30.1164 207.684 23.5081 216.855 23.5081 228.168C23.5081 239.481 30.1164 248.652 38.2681 248.652Z" fill="#FF6550"/>
<path opacity="0.53" d="M27.576 228.168C27.576 217.98 32.94 209.556 39.96 207.972C39.168 207.792 38.376 207.684 37.584 207.684C29.448 207.684 22.824 216.864 22.824 228.168C22.824 239.472 29.448 248.652 37.584 248.652C38.412 248.652 39.204 248.544 39.96 248.364C32.904 246.78 27.576 238.356 27.576 228.168Z" fill="#333333"/>
<path d="M38.2681 248.652C46.4199 248.652 53.0281 239.481 53.0281 228.168C53.0281 216.855 46.4199 207.684 38.2681 207.684C30.1164 207.684 23.5081 216.855 23.5081 228.168C23.5081 239.481 30.1164 248.652 38.2681 248.652Z" stroke="#170E10" stroke-width="2" stroke-miterlimit="10" stroke-linecap="round" stroke-linejoin="round"/>
<path d="M38.8081 240.192L43.0561 235.98" stroke="#170E10" stroke-width="2" stroke-miterlimit="10" stroke-linecap="round" stroke-linejoin="round"/>
<path d="M38.2681 233.784L33.7681 229.536" stroke="#170E10" stroke-width="2" stroke-miterlimit="10" stroke-linecap="round" stroke-linejoin="round"/>
<path d="M201.42 252.864C206.39 252.864 210.42 247.319 210.42 240.48C210.42 233.64 206.39 228.096 201.42 228.096C196.449 228.096 192.42 233.64 192.42 240.48C192.42 247.319 196.449 252.864 201.42 252.864Z" fill="#E97E1C"/>
<path opacity="0.53" d="M196.02 240.48C196.02 234.504 199.116 229.5 203.22 228.348C202.644 228.204 202.032 228.096 201.42 228.096C196.452 228.096 192.42 233.64 192.42 240.48C192.42 247.32 196.452 252.864 201.42 252.864C202.032 252.864 202.644 252.792 203.22 252.612C199.116 251.46 196.02 246.456 196.02 240.48Z" fill="#333333"/>
<path d="M201.42 252.864C206.39 252.864 210.42 247.319 210.42 240.48C210.42 233.64 206.39 228.096 201.42 228.096C196.449 228.096 192.42 233.64 192.42 240.48C192.42 247.319 196.449 252.864 201.42 252.864Z" stroke="#170E10" stroke-width="2" stroke-miterlimit="10" stroke-linecap="round" stroke-linejoin="round"/>
<path d="M274.608 228.672C275.976 241.452 266.292 246.6 261.036 246.276C255.744 246.6 246.096 241.452 247.464 228.672C249.912 216.288 255.276 206.712 261.036 206.748C266.76 206.712 272.16 216.288 274.608 228.672Z" fill="#D44644"/>
<path opacity="0.53" d="M264.492 245.556C259.2 245.88 249.552 240.732 250.92 227.952C252.936 217.656 257.04 209.268 261.648 206.784C261.432 206.748 261.252 206.748 261.036 206.748C255.276 206.676 249.876 216.252 247.464 228.672C246.096 241.452 255.78 246.6 261.036 246.276C262.296 246.348 263.772 246.132 265.284 245.556C264.996 245.592 264.744 245.592 264.492 245.556Z" fill="#333333"/>
<path d="M274.608 228.672C275.976 241.452 266.292 246.6 261.036 246.276C255.744 246.6 246.096 241.452 247.464 228.672C249.912 216.288 255.276 206.712 261.036 206.748C266.76 206.712 272.16 216.288 274.608 228.672Z" stroke="#170E10" stroke-width="2" stroke-miterlimit="10" stroke-linecap="round" stroke-linejoin="round"/>
<path d="M261.036 237.708L265.572 233.172" stroke="#170E10" stroke-width="2" stroke-miterlimit="10" stroke-linecap="round" stroke-linejoin="round"/>
<path d="M261.036 229.86L256.068 224.892" stroke="#170E10" stroke-width="2" stroke-miterlimit="10" stroke-linecap="round" stroke-linejoin="round"/>
<path d="M147.78 278.28H185.76" stroke="#170E10" stroke-width="2" stroke-miterlimit="10" stroke-linecap="round" stroke-linejoin="round"/>
<path d="M191.448 278.28H195.336" stroke="#170E10" stroke-width="2" stroke-miterlimit="10" stroke-linecap="round" stroke-linejoin="round"/>
<path d="M199.908 278.28H200.664" stroke="#170E10" stroke-width="2" stroke-miterlimit="10" stroke-linecap="round" stroke-linejoin="round"/>
<path d="M129.384 278.28H138.78" stroke="#170E10" stroke-width="2" stroke-miterlimit="10" stroke-linecap="round" stroke-linejoin="round"/>
<path d="M201.42 244.26V246.312V247.932V260.784" stroke="#170E10" stroke-width="2" stroke-miterlimit="10" stroke-linecap="round" stroke-linejoin="round"/>
<path d="M261.036 220.5V261.36" stroke="#170E10" stroke-width="2" stroke-miterlimit="10" stroke-linecap="round" stroke-linejoin="round"/>
<path d="M38.8081 224.28V261.36" stroke="#170E10" stroke-width="2" stroke-miterlimit="10" stroke-linecap="round" stroke-linejoin="round"/>
<path d="M311.004 247.5C319.156 247.5 325.764 238.329 325.764 227.016C325.764 215.703 319.156 206.532 311.004 206.532C302.852 206.532 296.244 215.703 296.244 227.016C296.244 238.329 302.852 247.5 311.004 247.5Z" fill="#E97E1C"/>
<path opacity="0.53" d="M299.844 227.016C299.844 216.576 305.496 207.936 312.804 206.712C312.228 206.604 311.616 206.568 311.004 206.568C302.868 206.568 296.244 215.748 296.244 227.052C296.244 238.356 302.868 247.536 311.004 247.536C311.616 247.536 312.228 247.464 312.804 247.392C305.496 246.096 299.844 237.456 299.844 227.016Z" fill="#333333"/>
<path d="M311.004 247.5C319.156 247.5 325.764 238.329 325.764 227.016C325.764 215.703 319.156 206.532 311.004 206.532C302.852 206.532 296.244 215.703 296.244 227.016C296.244 238.329 302.852 247.5 311.004 247.5Z" stroke="#170E10" stroke-width="2" stroke-miterlimit="10" stroke-linecap="round" stroke-linejoin="round"/>
<path d="M311.58 240.84L315.792 236.628" stroke="#170E10" stroke-width="2" stroke-miterlimit="10" stroke-linecap="round" stroke-linejoin="round"/>
<path d="M311.004 234.396L306.504 230.184" stroke="#170E10" stroke-width="2" stroke-miterlimit="10" stroke-linecap="round" stroke-linejoin="round"/>
<path d="M311.58 224.892V261.216" stroke="#170E10" stroke-width="2" stroke-miterlimit="10" stroke-linecap="round" stroke-linejoin="round"/>
<path d="M117.828 111.132V124.236" stroke="#170E10" stroke-width="2" stroke-miterlimit="10" stroke-linejoin="round"/>
<path d="M125.64 111.132V124.236" stroke="#170E10" stroke-width="2" stroke-miterlimit="10" stroke-linejoin="round"/>
<path opacity="0.55" d="M38.1599 217.62C38.8558 217.62 39.4199 217.056 39.4199 216.36C39.4199 215.664 38.8558 215.1 38.1599 215.1C37.464 215.1 36.8999 215.664 36.8999 216.36C36.8999 217.056 37.464 217.62 38.1599 217.62Z" fill="white"/>
<path opacity="0.55" d="M45.9359 231.66C46.8305 231.66 47.5559 230.935 47.5559 230.04C47.5559 229.145 46.8305 228.42 45.9359 228.42C45.0413 228.42 44.3159 229.145 44.3159 230.04C44.3159 230.935 45.0413 231.66 45.9359 231.66Z" fill="white"/>
<path opacity="0.53" d="M44.6759 223.092C45.5705 223.092 46.2959 222.367 46.2959 221.472C46.2959 220.577 45.5705 219.852 44.6759 219.852C43.7813 219.852 43.0559 220.577 43.0559 221.472C43.0559 222.367 43.7813 223.092 44.6759 223.092Z" fill="#333333"/>
<path opacity="0.53" d="M33.7681 224.748C34.4242 224.748 34.9561 224.216 34.9561 223.56C34.9561 222.904 34.4242 222.372 33.7681 222.372C33.112 222.372 32.5801 222.904 32.5801 223.56C32.5801 224.216 33.112 224.748 33.7681 224.748Z" fill="#333333"/>
<path opacity="0.55" d="M200.304 235.548C200.781 235.548 201.168 235.161 201.168 234.684C201.168 234.207 200.781 233.82 200.304 233.82C199.827 233.82 199.44 234.207 199.44 234.684C199.44 235.161 199.827 235.548 200.304 235.548Z" fill="white"/>
<path opacity="0.53" d="M205.524 239.328C206.2 239.328 206.748 238.78 206.748 238.104C206.748 237.428 206.2 236.88 205.524 236.88C204.848 236.88 204.3 237.428 204.3 238.104C204.3 238.78 204.848 239.328 205.524 239.328Z" fill="#333333"/>
<path opacity="0.55" d="M260.496 217.944C260.973 217.944 261.36 217.557 261.36 217.08C261.36 216.603 260.973 216.216 260.496 216.216C260.019 216.216 259.632 216.603 259.632 217.08C259.632 217.557 260.019 217.944 260.496 217.944Z" fill="white"/>
<path opacity="0.55" d="M267.588 228.384C268.264 228.384 268.812 227.836 268.812 227.16C268.812 226.484 268.264 225.936 267.588 225.936C266.912 225.936 266.364 226.484 266.364 227.16C266.364 227.836 266.912 228.384 267.588 228.384Z" fill="white"/>
<path opacity="0.53" d="M265.716 221.724C266.392 221.724 266.94 221.176 266.94 220.5C266.94 219.824 266.392 219.276 265.716 219.276C265.04 219.276 264.492 219.824 264.492 220.5C264.492 221.176 265.04 221.724 265.716 221.724Z" fill="#333333"/>
<path opacity="0.53" d="M256.068 235.044C256.744 235.044 257.292 234.496 257.292 233.82C257.292 233.144 256.744 232.596 256.068 232.596C255.392 232.596 254.844 233.144 254.844 233.82C254.844 234.496 255.392 235.044 256.068 235.044Z" fill="#333333"/>
<path opacity="0.55" d="M316.476 222.948C317.41 222.948 318.168 222.191 318.168 221.256C318.168 220.322 317.41 219.564 316.476 219.564C315.541 219.564 314.784 220.322 314.784 221.256C314.784 222.191 315.541 222.948 316.476 222.948Z" fill="white"/>
<path opacity="0.53" d="M315.756 231.372C316.432 231.372 316.98 230.824 316.98 230.148C316.98 229.472 316.432 228.924 315.756 228.924C315.08 228.924 314.532 229.472 314.532 230.148C314.532 230.824 315.08 231.372 315.756 231.372Z" fill="#333333"/>
<path opacity="0.53" d="M309.924 218.592C310.6 218.592 311.148 218.044 311.148 217.368C311.148 216.692 310.6 216.144 309.924 216.144C309.248 216.144 308.7 216.692 308.7 217.368C308.7 218.044 309.248 218.592 309.924 218.592Z" fill="#333333"/>
<path d="M256.608 261.36C256.608 257.22 259.956 253.908 264.06 253.908C268.164 253.908 271.512 257.256 271.512 261.36H256.608Z" fill="#E97E1C"/>
<path opacity="0.53" d="M266.256 254.232C265.572 254.016 264.816 253.908 264.024 253.908C259.884 253.908 256.572 257.256 256.572 261.36H261C261.036 258.012 263.232 255.168 266.256 254.232Z" fill="#333333"/>
<path d="M256.608 261.36C256.608 257.22 259.956 253.908 264.06 253.908C268.164 253.908 271.512 257.256 271.512 261.36H256.608Z" stroke="#170E10" stroke-width="2" stroke-miterlimit="10" stroke-linecap="round" stroke-linejoin="round"/>
<path d="M266.04 261.36C266.04 255.42 270.828 250.632 276.768 250.632C282.708 250.632 287.496 255.42 287.496 261.36H266.04Z" fill="#D44644"/>
<path opacity="0.53" d="M278.82 250.848C278.136 250.704 277.452 250.632 276.732 250.632C270.792 250.632 266.004 255.42 266.004 261.36H270.144C270.18 256.14 273.888 251.784 278.82 250.848Z" fill="#333333"/>
<path d="M266.04 261.36C266.04 255.42 270.828 250.632 276.768 250.632C282.708 250.632 287.496 255.42 287.496 261.36H266.04Z" stroke="#170E10" stroke-width="2" stroke-miterlimit="10" stroke-linecap="round" stroke-linejoin="round"/>
<path d="M37 261L52.7246 209H62.8696L75.5 261H37Z" fill="white" fill-opacity="0.4"/>
<path d="M258 260.5L273.5 209H283.5L296 260.5H258Z" fill="white" fill-opacity="0.4"/>
</g>
<defs>
<clipPath id="clip0_823_2304">
<rect width="360" height="360" fill="white"/>
</clipPath>
<clipPath id="clip1_823_2304">
<rect width="360" height="360" fill="white"/>
</clipPath>
</defs>
</svg>
