<svg width="80" height="80" viewBox="0 0 80 80" fill="none" xmlns="http://www.w3.org/2000/svg">
<g id="Illustration - Coffee" clip-path="url(#clip0_406_1836)">
<g id="Coffee">
<path id="Vector" d="M80 0H0V80H80V0Z" fill="none"/>
<g id="bg">
<path id="SHAPE 73" opacity="0.15" d="M13.52 59.896H66.48" stroke="#474747" stroke-miterlimit="10" stroke-linecap="round" stroke-linejoin="round"/>
<g id="SHAPE0" opacity="0.15">
<path id="SHAPE 3" opacity="0.15" d="M58.6 59.8958V33.8718" stroke="#474747" stroke-miterlimit="10" stroke-linecap="round" stroke-linejoin="round"/>
<path id="Vector_2" opacity="0.15" d="M60.688 26.8079C62.632 29.3279 67.68 45.4399 58.6 45.4399C49.52 45.4399 54.576 29.3279 56.512 26.8079C57.192 25.9279 57.984 25.5439 58.6 25.5439C59.216 25.5439 60.008 25.9279 60.688 26.8079Z" stroke="#474747" stroke-miterlimit="10" stroke-linecap="round" stroke-linejoin="round"/>
<path id="SHAPE 7" opacity="0.15" d="M58.6 37.88L60.616 35.864" stroke="#474747" stroke-miterlimit="10" stroke-linecap="round" stroke-linejoin="round"/>
<path id="SHAPE 8" opacity="0.15" d="M58.6 42.576L55.856 39.832" stroke="#474747" stroke-miterlimit="10" stroke-linecap="round" stroke-linejoin="round"/>
<path id="SHAPE2" opacity="0.15" d="M65.256 48.52C67.4386 48.52 69.208 46.7506 69.208 44.568C69.208 42.3853 67.4386 40.616 65.256 40.616C63.0733 40.616 61.304 42.3853 61.304 44.568C61.304 46.7506 63.0733 48.52 65.256 48.52Z" fill="white"/>
<path id="SHAPE 4" opacity="0.15" d="M65.256 48.52C67.4386 48.52 69.208 46.7506 69.208 44.568C69.208 42.3853 67.4386 40.616 65.256 40.616C63.0733 40.616 61.304 42.3853 61.304 44.568C61.304 46.7506 63.0733 48.52 65.256 48.52Z" stroke="#474747" stroke-miterlimit="10" stroke-linecap="round" stroke-linejoin="round"/>
<path id="SHAPE 9" opacity="0.15" d="M58.6 51.2239L65.912 43.9119" stroke="#474747" stroke-miterlimit="10" stroke-linecap="round" stroke-linejoin="round"/>
<path id="SHAPE4" opacity="0.15" d="M66.064 46.8879H62.936" stroke="#474747" stroke-miterlimit="10" stroke-linecap="round" stroke-linejoin="round"/>
<path id="SHAPE5" opacity="0.15" d="M64.504 45.3199V43.9119" stroke="#474747" stroke-miterlimit="10" stroke-linecap="round" stroke-linejoin="round"/>
<path id="SHAPE6" opacity="0.15" d="M58.6 55.984L52.04 49.416" stroke="#474747" stroke-miterlimit="10" stroke-linecap="round" stroke-linejoin="round"/>
<path id="SHAPE3" opacity="0.15" d="M55.697 53.5362C57.189 52.4108 57.1583 49.8543 55.6284 47.8262C54.0984 45.7982 51.6488 45.0664 50.1568 46.1919C48.6648 47.3174 48.6956 49.8738 50.2255 51.9019C51.7554 53.93 54.2051 54.6618 55.697 53.5362Z" stroke="#474747" stroke-miterlimit="10" stroke-linecap="round" stroke-linejoin="round"/>
<path id="SHAPE 79" opacity="0.15" d="M55.344 52.7199V50.5999" stroke="#474747" stroke-miterlimit="10" stroke-linecap="round" stroke-linejoin="round"/>
<path id="SHAPE 80" opacity="0.15" d="M52.04 51.04H53.664" stroke="#474747" stroke-miterlimit="10" stroke-linecap="round" stroke-linejoin="round"/>
<path id="SHAPE 86" opacity="0.15" d="M20.856 55.1919H19.072V59.6079H20.856V55.1919Z" stroke="#474747" stroke-miterlimit="10" stroke-linecap="round" stroke-linejoin="round"/>
<path id="SHAPE 85" opacity="0.15" d="M39.304 55.1919H37.52V59.6079H39.304V55.1919Z" stroke="#474747" stroke-miterlimit="10" stroke-linecap="round" stroke-linejoin="round"/>
<path id="SHAPE 84" opacity="0.15" d="M21.4641 43.72H20.2161V53.184H21.4641V43.72Z" stroke="#474747" stroke-miterlimit="10" stroke-linecap="round" stroke-linejoin="round"/>
<path id="SHAPE 83" opacity="0.15" d="M38.1521 43.72H36.9041V53.184H38.1521V43.72Z" stroke="#474747" stroke-miterlimit="10" stroke-linecap="round" stroke-linejoin="round"/>
<path id="SHAPE 89" opacity="0.15" d="M41.128 45.1599H16.144V47.8399H41.128V45.1599Z" fill="white"/>
<path id="SHAPE 82" opacity="0.15" d="M41.128 45.1599H16.144V47.8399H41.128V45.1599Z" stroke="#474747" stroke-miterlimit="10" stroke-linecap="round" stroke-linejoin="round"/>
<path id="SHAPE 88" opacity="0.15" d="M41.128 47.8398H16.144V50.5198H41.128V47.8398Z" fill="white"/>
<path id="SHAPE 81" opacity="0.15" d="M41.128 47.8398H16.144V50.5198H41.128V47.8398Z" stroke="#474747" stroke-miterlimit="10" stroke-linecap="round" stroke-linejoin="round"/>
<path id="SHAPE 77" opacity="0.15" d="M37.528 46.96C37.7268 46.96 37.888 46.7988 37.888 46.6C37.888 46.4012 37.7268 46.24 37.528 46.24C37.3292 46.24 37.168 46.4012 37.168 46.6C37.168 46.7988 37.3292 46.96 37.528 46.96Z" stroke="#474747" stroke-miterlimit="10" stroke-linecap="round" stroke-linejoin="round"/>
<path id="SHAPE 91" opacity="0.15" d="M37.528 49.5359C37.7268 49.5359 37.888 49.3747 37.888 49.1759C37.888 48.9771 37.7268 48.8159 37.528 48.8159C37.3292 48.8159 37.168 48.9771 37.168 49.1759C37.168 49.3747 37.3292 49.5359 37.528 49.5359Z" stroke="#474747" stroke-miterlimit="10" stroke-linecap="round" stroke-linejoin="round"/>
<path id="SHAPE 93" opacity="0.15" d="M20.848 46.96C21.0468 46.96 21.208 46.7988 21.208 46.6C21.208 46.4012 21.0468 46.24 20.848 46.24C20.6492 46.24 20.488 46.4012 20.488 46.6C20.488 46.7988 20.6492 46.96 20.848 46.96Z" stroke="#474747" stroke-miterlimit="10" stroke-linecap="round" stroke-linejoin="round"/>
<path id="SHAPE 92" opacity="0.15" d="M20.848 49.5359C21.0468 49.5359 21.208 49.3747 21.208 49.1759C21.208 48.9771 21.0468 48.8159 20.848 48.8159C20.6492 48.8159 20.488 48.9771 20.488 49.1759C20.488 49.3747 20.6492 49.5359 20.848 49.5359Z" stroke="#474747" stroke-miterlimit="10" stroke-linecap="round" stroke-linejoin="round"/>
<path id="SHAPE 87" opacity="0.15" d="M43.144 53.1838H14.864V55.1998H43.144V53.1838Z" stroke="#474747" stroke-miterlimit="10" stroke-linecap="round" stroke-linejoin="round"/>
</g>
</g>
<g id="Group">
<path id="SHAPE04" d="M33.76 57.0078L34.08 59.2958C34.128 59.6398 34.448 59.8958 34.832 59.8958H45.088C45.472 59.8958 45.792 59.6398 45.84 59.2958L46.16 57.0078H33.76Z" fill="#D6D6D4"/>
<path id="SHAPE 74" d="M44.856 59.8958L45.6 59.7038L46.144 57.0078H33.76L33.88 57.8878H44.104C44.112 57.8878 44.112 57.8878 44.12 57.8878C45.584 57.8878 44.856 59.8958 44.856 59.8958Z" fill="#BABABA"/>
<path id="SHAPE03" d="M47.384 56.2318L50.184 33.8718H29.72L32.52 56.2318C32.576 56.6718 32.96 57.0078 33.416 57.0078H46.496C46.952 57.0078 47.328 56.6798 47.384 56.2318Z" fill="#5EB173"/>
<g id="SHAPE 30">
<path id="SHAPE34" opacity="0.34" d="M39.384 52.1758C39.184 52.1758 39.032 52.0718 38.976 52.0318C38.8 51.8878 38.696 51.6478 38.688 51.3598C38.672 51.0078 38.8 50.6638 39.024 50.4478C39.088 50.3918 39.272 50.2078 39.512 50.2078C39.536 50.2078 39.56 50.2078 39.584 50.2158C39.744 50.2398 39.888 50.3438 40 50.5198C40.176 50.7838 40.232 51.1438 40.16 51.4478C40.072 51.7998 39.776 52.1758 39.4 52.1838L39.384 52.1758ZM39.464 51.0718C39.392 51.2398 39.408 51.3438 39.432 51.3678C39.432 51.3678 39.44 51.3678 39.44 51.3758C39.448 51.3678 39.464 51.3438 39.48 51.3038C39.504 51.2238 39.488 51.1358 39.464 51.0718Z" fill="#60A06C"/>
<path id="SHAPE9" opacity="0.34" d="M40.3119 53.1678C40.2079 53.1678 40.1039 53.1358 40.0239 53.0798C39.8479 52.9598 39.8559 52.7998 39.9039 52.2158C39.9359 51.8478 39.9839 51.2798 40.0239 50.3998C40.0239 50.3518 40.0319 50.3118 40.0319 50.2638C40.0239 50.2638 40.0239 50.2638 40.0159 50.2638C39.9999 50.2638 39.9759 50.2638 39.9599 50.2638C39.8959 50.2718 39.8319 50.2718 39.7679 50.2718C39.6959 50.2718 39.6319 50.2798 39.5679 50.2878C39.5439 50.2878 39.5199 50.2958 39.4959 50.2958C39.4479 50.3038 39.4079 50.3038 39.3759 50.3038C39.3039 50.3038 39.2479 50.2798 39.1999 50.2318C39.0319 50.0638 39.2159 49.7038 39.3519 49.5678C39.4639 49.4638 39.6159 49.4078 39.7999 49.4078C39.9039 49.4078 40.0239 49.4238 40.1679 49.4558C40.2559 49.1998 40.3839 49.0158 40.5439 48.9038C40.6079 48.8558 40.7839 48.7358 41.0159 48.7358C41.0479 48.7358 41.0799 48.7358 41.1119 48.7438C41.1599 48.7518 41.3119 48.7758 41.4399 48.8958C41.5599 49.0158 41.5919 49.1758 41.5919 49.2878C41.6559 49.2638 41.7199 49.2478 41.7999 49.2478C41.8319 49.2478 41.8559 49.2478 41.8879 49.2558C41.9359 49.2638 42.0719 49.2798 42.1839 49.3998C42.3679 49.5838 42.3199 49.8478 42.3119 49.8958L42.2799 50.0318C42.3039 50.0238 42.3279 50.0078 42.3439 49.9918C42.3919 49.9438 42.4239 49.8718 42.4319 49.7678L42.4559 49.4398L42.8639 49.8238L42.8799 49.8478C42.9519 49.9918 42.9039 50.1758 42.7359 50.3838C42.6159 50.5358 42.3839 50.6078 42.0319 50.6078C41.9279 50.6078 41.8079 50.5998 41.6799 50.5838C41.6319 50.9758 41.6399 51.4078 41.6399 51.4078C41.6479 51.5678 41.6479 51.7198 41.6559 51.8478C41.6799 52.5598 41.6879 52.8478 41.4639 53.0158C41.3839 53.0718 41.2799 53.1038 41.1759 53.1038C41.0799 53.1038 40.9919 53.0798 40.9119 53.0238C40.8319 52.9678 40.7919 52.9118 40.7759 52.7998C40.7439 52.8958 40.6879 52.9678 40.6079 53.0318C40.5439 53.1278 40.4319 53.1678 40.3119 53.1678ZM40.8559 50.4398C40.8239 50.8398 40.8319 51.2238 40.8319 51.2238C40.8399 51.4078 40.8399 51.5758 40.8479 51.7278C40.8479 51.7918 40.8559 51.8478 40.8559 51.9038C40.8799 51.6078 40.9039 51.2238 40.9279 50.7118C40.9279 50.6238 40.9359 50.5438 40.9439 50.4638C40.9119 50.4558 40.8879 50.4478 40.8559 50.4398ZM41.8879 50.0478C41.9839 50.0638 42.0639 50.0798 42.1279 50.0798C42.1519 50.0798 42.1759 50.0798 42.1999 50.0718L42.0959 50.0158C42.0639 49.9998 42.0319 49.9918 42.0079 49.9918C41.9999 49.9918 41.9919 49.9918 41.9839 49.9918C41.9759 49.9918 41.9279 50.0078 41.8879 50.0478ZM41.1039 49.7838C41.1439 49.6878 41.1999 49.5998 41.2559 49.5358C41.2479 49.5358 41.2479 49.5358 41.2399 49.5358C41.2319 49.5358 41.2159 49.5358 41.2079 49.5358C41.2079 49.5358 41.1279 49.5518 41.0479 49.6398C41.0319 49.6558 41.0079 49.6878 40.9839 49.7438C40.9999 49.7438 41.0799 49.7758 41.1039 49.7838Z" fill="#60A06C"/>
<path id="6" opacity="0.34" d="M42.12 52.3758C41.936 52.3758 41.776 52.3198 41.672 52.2158C41.52 52.0638 41.464 51.7838 41.536 51.4638C41.608 51.1118 41.84 50.6398 42.264 50.4638C42.304 50.4478 42.448 50.3918 42.616 50.3918C42.768 50.3918 42.896 50.4398 43 50.5198C43.2 50.6878 43.232 50.9758 43.176 51.1758C43.12 51.3838 42.968 51.5198 42.792 51.6078C42.808 51.6318 42.832 51.6638 42.832 51.7198C42.848 51.8398 42.784 52.0318 42.648 52.1678C42.528 52.2958 42.328 52.3758 42.12 52.3758ZM42.528 51.0238C42.504 51.0318 42.48 51.0478 42.448 51.0718C42.48 51.0558 42.504 51.0398 42.528 51.0238Z" fill="#60A06C"/>
<path id="4" opacity="0.34" d="M43.4079 52.4079C43.2239 52.4079 43.0399 52.3439 42.9359 52.2239C42.7839 52.0639 42.7359 51.8079 42.7919 51.5039C42.8719 51.1199 43.1119 50.7919 43.3999 50.6719C43.5039 50.6319 43.6239 50.6079 43.7359 50.6079C43.9199 50.6079 44.0639 50.6639 44.1599 50.7759C44.3359 50.9759 44.2719 51.2559 44.2479 51.3359C44.1999 51.5039 44.0879 51.6319 43.9519 51.7199C43.9759 51.7439 43.9999 51.7839 43.9999 51.8399C44.0079 51.9519 43.9519 52.1359 43.8239 52.2479C43.7279 52.3519 43.5759 52.4079 43.4079 52.4079Z" fill="#60A06C"/>
<path id="1" opacity="0.34" d="M37.552 53.0399C37.424 53.0399 37.304 53.0239 37.184 52.9839C36.784 52.8639 36.464 52.5359 36.28 52.0639C36.08 51.5519 36.144 50.9039 36.432 50.3199C36.312 50.3439 36.208 50.4079 36.112 50.4639C36.008 50.5279 35.92 50.5759 35.824 50.5759C35.768 50.5759 35.72 50.5599 35.672 50.5279C35.584 50.4559 35.536 50.3279 35.544 50.1679C35.552 49.9759 35.64 49.7119 35.856 49.5919C35.936 49.5439 36.032 49.5199 36.136 49.5199C36.344 49.5199 36.584 49.6159 36.832 49.7279C37.072 49.4559 37.352 49.2719 37.64 49.1759C37.8 49.1279 37.96 49.0959 38.096 49.0959C38.304 49.0959 38.472 49.1599 38.576 49.2799C38.816 49.5519 38.704 50.0399 38.456 50.3279C38.336 50.4639 38.112 50.6319 37.712 50.6559C37.688 50.6559 37.672 50.6559 37.648 50.6559C37.496 50.6559 37.368 50.6239 37.224 50.5759C37.184 50.5679 37.152 50.5519 37.12 50.5439C36.968 51.0799 37.04 51.6559 37.296 51.8719C37.376 51.9359 37.512 52.0079 37.656 52.0079C37.688 52.0079 37.72 52.0079 37.744 51.9999C37.752 51.9999 37.968 51.9439 38.008 51.7759C38.032 51.6959 38.016 51.5919 37.968 51.5359C37.936 51.4959 37.888 51.4799 37.84 51.4559C37.792 51.4399 37.664 51.3839 37.68 51.2479C37.696 51.0959 37.888 51.0239 38.056 51.0239C38.104 51.0239 38.152 51.0319 38.2 51.0399C38.568 51.1359 38.84 51.6559 38.752 52.1119C38.68 52.4959 38.392 52.7039 38.296 52.7759C38.088 52.9599 37.824 53.0399 37.552 53.0399ZM37.4 50.0159C37.496 50.0639 37.56 50.0879 37.624 50.0879C37.64 50.0879 37.656 50.0879 37.672 50.0879C37.808 50.0719 37.968 49.9919 38.008 49.8639C38.032 49.7999 38.024 49.7359 38.008 49.7279C38.008 49.7279 37.984 49.7119 37.944 49.7119C37.848 49.7119 37.728 49.7519 37.648 49.7999L37.64 49.8079C37.552 49.8559 37.472 49.9279 37.4 50.0159Z" fill="#60A06C"/>
</g>
<path id="SHAPE 72" d="M29.72 33.8718L29.936 35.6318H46.96C47.608 35.6318 48.112 36.1998 48.032 36.8478L46.256 55.2478C46.184 55.9518 45.656 56.5278 44.96 56.6558L42.96 57.0158H45.808H46.488C46.944 57.0158 47.328 56.6878 47.384 56.2398L50.184 33.8798H29.72V33.8718Z" fill="#60A06C"/>
<path id="SHAPE 63" d="M33.76 57.0078L34.08 59.2958C34.128 59.6398 34.448 59.8958 34.832 59.8958H45.088C45.472 59.8958 45.792 59.6398 45.84 59.2958L46.16 57.0078H33.76Z" stroke="#474747" stroke-miterlimit="10" stroke-linecap="round" stroke-linejoin="round"/>
<path id="SHAPE 59" d="M47.384 56.2318L50.184 33.8718H29.72L32.52 56.2318C32.576 56.6718 32.96 57.0078 33.416 57.0078H46.496C46.952 57.0078 47.328 56.6798 47.384 56.2318Z" stroke="#474747" stroke-miterlimit="10" stroke-linecap="round" stroke-linejoin="round"/>
<path id="SHAPE08" d="M50.6239 33.8719C43.5119 33.8719 36.3919 33.8719 29.2799 33.8719C28.5839 33.8799 28.6799 33.5039 28.9199 32.7919C29.0639 32.3679 29.0639 31.9119 28.9199 31.4959C28.6799 30.7759 28.5839 30.4079 29.2799 30.4159C36.3919 30.4159 43.5119 30.4159 50.6239 30.4159C51.3199 30.4079 51.2239 30.7839 50.9839 31.4959C50.8399 31.9199 50.8399 32.3759 50.9839 32.7919C51.2239 33.5039 51.3199 33.8799 50.6239 33.8719Z" fill="#646464"/>
<g id="Group_2">
<path id="Vector_3" d="M50.984 31.4879C51.136 31.0239 51.232 30.7039 51.096 30.5359C51.064 30.6399 51.024 30.7599 50.984 30.8879C50.88 31.1919 50.856 31.5199 50.896 31.8399C50.92 31.7199 50.944 31.6079 50.984 31.4879Z" fill="#7C7C7C"/>
<path id="Vector_2_2" d="M29.008 31.8399C29.056 31.5199 29.032 31.1999 28.92 30.8879C28.88 30.7599 28.84 30.6479 28.808 30.5359C28.672 30.7039 28.76 31.0239 28.92 31.4879C28.96 31.6079 28.992 31.7199 29.008 31.8399Z" fill="#7C7C7C"/>
<path id="Vector_3_2" d="M51.096 33.136C51.016 33.224 50.872 33.272 50.624 33.272C43.512 33.272 36.392 33.272 29.28 33.272C29.032 33.272 28.888 33.232 28.808 33.136C28.672 33.624 28.704 33.872 29.28 33.872C36.392 33.872 43.512 33.872 50.624 33.872C51.2 33.88 51.232 33.624 51.096 33.136Z" fill="#7C7C7C"/>
</g>
<g id="SHAPE 68">
<path id="SHAPE 69" d="M50.9839 32.7919C50.9679 32.7519 50.9599 32.7119 50.9519 32.6719C50.8479 33.0479 50.8559 33.4479 50.9759 33.8239C51.2719 33.7039 51.1679 33.3519 50.9839 32.7919Z" fill="#646464"/>
<path id="SHAPE 70" d="M29.0319 32.28C29.1119 32.248 29.4239 31.472 29.9039 31.472C37.0159 31.472 43.0719 31.472 50.1839 31.472C50.7599 31.472 50.8639 32.64 50.9519 32.672C50.9519 32.664 50.9839 31.496 50.9839 31.488C51.2239 30.768 51.3199 30.4 50.6239 30.408C43.5199 30.408 36.4079 30.408 29.3039 30.408C28.5839 30.392 28.6799 30.768 28.9199 31.488C28.9279 31.504 29.0239 32.272 29.0319 32.28Z" fill="#646464"/>
<path id="SHAPE 71" d="M28.936 33.8239C29.056 33.4479 29.064 33.0479 28.96 32.6719C28.952 32.7119 28.936 32.7519 28.928 32.7919C28.736 33.3519 28.632 33.7039 28.936 33.8239Z" fill="#646464"/>
</g>
<path id="SHAPE 44" d="M50.6239 33.8719C43.5119 33.8719 36.3919 33.8719 29.2799 33.8719C28.5839 33.8799 28.6799 33.5039 28.9199 32.7919C29.0639 32.3679 29.0639 31.9119 28.9199 31.4959C28.6799 30.7759 28.5839 30.4079 29.2799 30.4159C36.3919 30.4159 43.5119 30.4159 50.6239 30.4159C51.3199 30.4079 51.2239 30.7839 50.9839 31.4959C50.8399 31.9199 50.8399 32.3759 50.9839 32.7919C51.2239 33.5039 51.3199 33.8799 50.6239 33.8719Z" stroke="#474747" stroke-miterlimit="10" stroke-linecap="round" stroke-linejoin="round"/>
<path id="SHAPE06" d="M50.0079 30.4079H29.9039L30.1039 29.7039C30.4159 28.5839 31.4879 27.8079 32.7119 27.8079H47.1999C48.4239 27.8079 49.4879 28.5839 49.8079 29.7039L50.0079 30.4079Z" fill="#D6D6D4"/>
<path id="SHAPE 66" d="M50.0079 30.4079H29.9039L30.1039 29.7039C30.4159 28.5839 31.4879 27.8079 32.7119 27.8079H47.1999C48.4239 27.8079 49.4879 28.5839 49.8079 29.7039L50.0079 30.4079Z" fill="#D6D6D4"/>
<path id="SHAPE 76" d="M34.12 28.6399L47.84 28.6319C48.832 28.6319 49.44 29.3439 49.72 29.4319C49.232 28.7039 48.152 27.8079 47.208 27.8079H32.704C31.48 27.8079 30.416 28.5839 30.096 29.7039L29.896 30.4079H31.64C32.064 29.4799 33.032 28.6399 34.12 28.6399Z" fill="white"/>
<path id="SHAPE 43" d="M50.0079 30.4079H29.9039L30.1039 29.7039C30.4159 28.5839 31.4879 27.8079 32.7119 27.8079H47.1999C48.4239 27.8079 49.4879 28.5839 49.8079 29.7039L50.0079 30.4079Z" stroke="#474747" stroke-miterlimit="10" stroke-linecap="round" stroke-linejoin="round"/>
<path id="SHAPE07" d="M46.0479 27.8078H40.5599V27.2958C40.5599 26.7038 41.0399 26.2158 41.6399 26.2158H44.9759C45.5679 26.2158 46.0559 26.6958 46.0559 27.2958V27.8078H46.0479Z" fill="#D6D6D4"/>
<path id="SHAPE 67" d="M46.0479 27.8078H40.5599V27.2958C40.5599 26.7038 41.0399 26.2158 41.6399 26.2158H44.9759C45.5679 26.2158 46.0559 26.6958 46.0559 27.2958V27.8078H46.0479Z" fill="#D6D6D4"/>
<path id="SHAPE 78" d="M40.5679 27.7919C40.5679 27.2239 41.0239 26.7679 41.5919 26.7679H45.0319C45.5519 26.7679 45.9839 27.1599 46.0479 27.6639V27.2479C46.0479 26.6799 45.5919 26.2239 45.0239 26.2239H41.5839C41.0159 26.2239 40.5599 26.6799 40.5599 27.2479V27.8079H40.5679V27.7919Z" fill="white"/>
<path id="SHAPE 32" d="M39.304 46.5918C38.456 46.5918 36.92 45.9918 36.432 44.3838C35.952 43.0718 36.16 41.5278 36.968 40.3678C37.56 39.5198 38.368 39.0398 39.184 39.0398C39.432 39.0398 39.68 39.0878 39.92 39.1758L39.928 39.1838L39.936 39.1918C40.104 39.2878 40.2 39.3998 40.232 39.5358C40.28 39.7678 40.128 39.9838 39.928 40.2558C39.528 40.8078 38.984 41.5598 39.52 42.9598C40.144 44.5758 40.144 46.1118 39.76 46.4798C39.68 46.5518 39.52 46.5918 39.304 46.5918Z" fill="#60A06C"/>
<path id="SHAPE 42" d="M46.0479 27.8078H40.5599V27.2958C40.5599 26.7038 41.0399 26.2158 41.6399 26.2158H44.9759C45.5679 26.2158 46.0559 26.6958 46.0559 27.2958V27.8078H46.0479Z" stroke="#474747" stroke-miterlimit="10" stroke-linecap="round" stroke-linejoin="round"/>
<path id="SHAPE 31" d="M41.504 46.5679C41.192 46.5679 40.904 46.4479 40.704 46.2399C40.536 46.0559 40.448 45.8239 40.464 45.5759C40.504 44.9359 40.288 44.3279 40.08 43.7359C39.888 43.1999 39.704 42.6879 39.704 42.1599C39.696 40.2079 41.008 39.5919 41.168 39.5279C41.272 39.4639 41.392 39.4319 41.52 39.4319C42.04 39.4319 42.68 39.9439 43.144 40.7359C43.456 41.2639 44.376 43.1599 43.168 45.3359C42.728 46.1199 42.128 46.5679 41.504 46.5679Z" fill="#60A06C"/>
<path id="SHAPE 33" d="M39.944 39.0798C40.888 39.6158 38.496 40.2718 39.456 42.7678C40.112 44.4718 40.016 45.8478 39.736 46.1118C39.456 46.3758 37.264 46.0638 36.656 44.0958C35.664 41.3918 37.824 38.2878 39.944 39.0798Z" fill="#F6F9E4"/>
<path id="7" d="M41.32 39.4318C41.32 39.4318 39.936 39.9758 39.944 41.9278C39.944 43.0158 40.784 44.1119 40.704 45.3519C40.648 46.2159 42.128 46.7918 43.112 45.0238C44.832 41.9038 42.272 38.8238 41.32 39.4318Z" fill="#F6F9E4"/>
<g id="SHAPE02">
<path id="SHAPE 39" d="M39.0559 50.3999C38.6879 50.7519 38.6719 51.4799 38.9999 51.7439C39.0239 51.7599 39.1439 51.8639 39.3199 51.8559C39.6239 51.8479 39.8559 51.5119 39.9279 51.2399C40.0399 50.8079 39.8079 50.2639 39.4879 50.2079C39.2879 50.1759 39.1119 50.3439 39.0559 50.3999ZM39.5439 51.1919C39.5359 51.2159 39.4879 51.3599 39.3759 51.3759C39.3039 51.3839 39.2479 51.3359 39.2399 51.3279C39.1439 51.2399 39.1519 51.0399 39.2479 50.8239C39.3119 50.7279 39.3599 50.7039 39.3919 50.7119C39.5039 50.7119 39.6239 50.9839 39.5439 51.1919Z" fill="#F6F9E4"/>
<path id="SHAPE 38" d="M40.0319 52.7919C39.8639 52.6799 40.0079 52.4239 40.1039 50.2479C40.1279 49.6479 40.2559 49.1039 40.5679 48.8879C40.6319 48.8479 40.8079 48.7199 41.0239 48.7519C41.0719 48.7599 41.1759 48.7759 41.2559 48.8639C41.4079 49.0159 41.3599 49.2479 41.3519 49.2639C41.3039 49.2399 41.2159 49.1999 41.1039 49.2159C41.1039 49.2159 40.9759 49.2399 40.8559 49.3679C40.5519 49.6959 40.5839 51.0719 40.5839 51.0719C40.6159 52.2159 40.6719 52.6159 40.4479 52.7759C40.3439 52.8639 40.1599 52.8719 40.0319 52.7919Z" fill="#F6F9E4"/>
<path id="SHAPE 37" d="M40.9439 52.7679C40.7999 52.6719 40.9199 52.4479 41.0079 50.5679C41.0319 50.0479 41.1439 49.576 41.4079 49.392C41.4639 49.352 41.6159 49.2479 41.7999 49.2799C41.8399 49.2879 41.9279 49.304 42.0079 49.376C42.1359 49.504 42.0959 49.7039 42.0879 49.7279C42.0479 49.7039 41.9679 49.6719 41.8719 49.6879C41.8719 49.6879 41.7599 49.704 41.6559 49.816C41.3919 50.104 41.4239 51.2879 41.4239 51.2879C41.4479 52.2799 41.4959 52.6239 41.3039 52.7599C41.2079 52.8319 41.0559 52.8399 40.9439 52.7679Z" fill="#F6F9E4"/>
<path id="SHAPE 36" d="M42.2879 51.7119C42.2159 51.7279 42.1199 51.7279 42.0479 51.6799C41.8799 51.5599 41.9359 51.1359 42.1439 50.8879C42.1759 50.8559 42.3599 50.6479 42.5279 50.7039C42.5759 50.7199 42.6399 50.7679 42.6399 50.8239C42.6479 50.9599 42.3679 51.1119 42.1199 51.1279C41.9839 51.1359 41.8719 51.1039 41.8079 51.0799C41.7359 51.1839 41.7439 51.2479 41.7519 51.2719C41.7999 51.4239 42.1439 51.4159 42.1919 51.4079C42.2239 51.4079 42.8239 51.3679 42.9359 50.9599C42.9759 50.8079 42.9519 50.5919 42.8079 50.4639C42.5999 50.2879 42.2799 50.4079 42.2399 50.4319C41.6719 50.6559 41.4159 51.6319 41.7039 51.9199C41.8719 52.0879 42.2639 52.0639 42.4559 51.8799C42.5839 51.7519 42.6159 51.5519 42.5759 51.5279C42.5519 51.5279 42.4719 51.6719 42.2879 51.7119Z" fill="#F6F9E4"/>
<path id="SHAPE 35" d="M43.4959 51.816C43.4319 51.832 43.3439 51.832 43.2879 51.792C43.1359 51.68 43.1999 51.3039 43.3759 51.0879C43.3999 51.0559 43.5359 50.8879 43.6479 50.9279C43.7039 50.9439 43.7439 51.008 43.7439 51.064C43.7359 51.192 43.5199 51.288 43.3599 51.304C43.2399 51.32 43.1359 51.288 43.0799 51.264C43.0159 51.352 43.0239 51.416 43.0319 51.432C43.0719 51.552 43.3039 51.568 43.4239 51.552C43.6319 51.536 43.9439 51.4079 44.0239 51.1279C44.0319 51.0959 44.0959 50.864 43.9679 50.72C43.8239 50.56 43.5519 50.592 43.3839 50.656C42.9119 50.848 42.6959 51.672 42.9679 51.952C43.1279 52.112 43.4799 52.128 43.6479 51.976C43.7679 51.872 43.7919 51.688 43.7599 51.664C43.7279 51.648 43.6559 51.776 43.4959 51.816Z" fill="#F6F9E4"/>
<path id="SHAPE 34" d="M42.5279 49.6319C42.5199 49.7359 42.4879 49.8639 42.3919 49.9599C41.8399 50.4879 39.9359 49.0079 39.3999 49.5359C39.2799 49.6479 39.1839 49.9039 39.2479 49.9759C39.2799 50.0079 39.3359 49.9919 39.4799 49.9759C39.6079 49.9599 39.7439 49.9679 39.8719 49.9519C40.1919 49.9199 40.6799 50.1119 41.1839 50.2239C41.3119 50.2479 42.3199 50.4559 42.5599 50.1519C42.5919 50.1119 42.7439 49.9119 42.6799 49.7839C42.6239 49.7279 42.5759 49.6799 42.5279 49.6319Z" fill="#F6F9E4"/>
<path id="5" d="M36.9279 49.832C37.2719 50 37.3839 50.112 37.6079 50.088C37.7839 50.064 38.0159 49.96 38.0799 49.752C38.1039 49.672 38.1199 49.528 38.0479 49.456C37.9359 49.336 37.6559 49.416 37.4959 49.496C37.4959 49.496 37.4879 49.504 37.4799 49.504C36.7839 49.88 36.5679 51.384 37.1279 51.856C37.2719 51.976 37.4959 52.072 37.7199 52.016C37.7519 52.008 38.0319 51.936 38.1039 51.68C38.1359 51.552 38.1119 51.4 38.0319 51.296C37.9279 51.176 37.7759 51.168 37.7839 51.128C37.7839 51.088 37.9519 51.024 38.1039 51.064C38.3919 51.136 38.6079 51.576 38.5359 51.952C38.4719 52.272 38.2239 52.456 38.1439 52.512C37.8559 52.72 37.4799 52.768 37.1599 52.672C36.6159 52.504 36.4079 51.96 36.3599 51.848C35.9679 50.84 36.7039 49.464 37.6239 49.176C37.6879 49.152 38.1839 49 38.3919 49.232C38.5679 49.432 38.4719 49.84 38.2719 50.064C38.0479 50.32 37.7279 50.336 37.6399 50.344C37.4799 50.352 37.3599 50.32 37.1999 50.272C36.7919 50.16 36.7679 50.032 36.5439 49.992C36.1119 49.928 35.8399 50.344 35.6959 50.24C35.5679 50.144 35.6239 49.704 35.8639 49.568C36.0959 49.432 36.4799 49.616 36.9279 49.832Z" fill="#F6F9E4"/>
</g>
<path id="SHAPE25" d="M46.136 16.1919C45.512 17.0639 44.824 17.2799 44.296 18.2959C44.152 18.5759 43.728 19.3919 43.856 20.3759C44.024 21.6719 45 22.0079 45.096 23.1759C45.136 23.7039 44.992 24.3439 44.456 25.0959" stroke="#474747" stroke-miterlimit="10" stroke-linecap="round" stroke-linejoin="round"/>
<path id="SHAPE 62" d="M48.1359 12.0879C48.6239 14.1119 48.2719 15.3599 47.8559 16.1279C47.0959 17.5279 45.7119 18.0719 45.6159 19.4799C45.5679 20.1439 45.8319 20.7039 46.0479 21.0559" stroke="#474747" stroke-miterlimit="10" stroke-linecap="round" stroke-linejoin="round"/>
<path id="SHAPE 6" d="M43.552 16.8879C43.552 16.8879 42.592 18.0079 42.592 19.0239" stroke="#474747" stroke-miterlimit="10" stroke-linecap="round" stroke-linejoin="round"/>
</g>
</g>
</g>
<defs>
<clipPath id="clip0_406_1836">
<rect width="80" height="80" fill="white"/>
</clipPath>
</defs>
</svg>
