<svg width="26" height="24" viewBox="0 0 26 24" fill="none" xmlns="http://www.w3.org/2000/svg">
<path d="M5.19995 10.9168C5.82692 13.9095 7.41189 20.1531 8.73605 21.1853C10.3912 22.4756 9.93983 10.0566 14.0778 15.1102C17.3882 19.1531 21.7519 8.69459 23.52 2.95996" stroke="#006781" stroke-width="4" stroke-linecap="round" stroke-linejoin="round"/>
<path d="M4.83967 7.71399C4.73323 7.89986 4.47938 7.93986 4.32093 7.79573C3.64539 7.16942 2.08541 5.66789 1.93288 4.69989C1.74916 3.53389 2.54928 2.43833 3.71919 2.25399C4.88911 2.06965 5.98735 2.86609 6.17107 4.03209C6.3236 5.00009 5.30093 6.90856 4.83967 7.71399ZM3.94105 3.66199C3.6872 3.70199 3.47796 3.88151 3.37844 4.11138C3.2917 4.35051 3.33503 4.62551 3.48937 4.81538C3.65648 5.01451 3.90906 5.10999 4.16291 5.06999C4.40572 5.03173 4.6167 4.86321 4.71447 4.62234C4.80295 4.39421 4.75962 4.11921 4.60355 3.91834C4.43817 3.73021 4.18386 3.62373 3.94105 3.66199Z" fill="#006781"/>
</svg>
